<svg width="982" height="880" viewBox="0 0 982 880" fill="none" xmlns="http://www.w3.org/2000/svg">
<g opacity="0.25">
<g filter="url(#filter0_dd_688_3548)">
<path d="M624.672 457.213C624.672 457.213 605.751 460.746 595.152 466.57C587.673 470.681 577.624 479.623 577.624 479.623C577.624 479.623 615.453 460.864 643.436 461.125C671.824 461.389 716.131 460.83 716.131 460.83C716.131 460.83 676.236 469.201 652.283 478.776C637.432 484.712 615.355 494.454 615.355 494.454C615.355 494.454 663.088 475.739 693.651 473.861C717.797 472.378 752.598 454.82 752.598 454.82L747.9 460.733L773.735 460.89L751.766 474.485L759.04 477.739C759.04 477.739 723.455 478.811 698.62 491.542C672.681 504.839 620.693 513.445 620.693 513.445C620.693 513.445 652.167 511.196 671.923 507.171C693.17 502.844 724.414 490.298 724.414 490.298C724.414 490.298 688.193 512.04 662.21 527.92C640.803 541.002 597.318 549.692 597.318 549.692L649.162 541.832C649.162 541.832 625.979 559.307 608.652 564.877C592.395 570.104 572.431 574.507 565.228 570.017C557.182 565.001 560.608 555.376 554.202 548.385C542.431 535.538 511.795 534.515 511.795 534.515C511.795 534.515 535.759 515.486 540.03 497.962C542.298 488.654 536.498 482.115 540.556 473.437C547.352 458.9 561.913 461.401 578.558 457.809C595.204 454.217 624.672 457.213 624.672 457.213Z" fill="url(#paint0_linear_688_3548)"/>
</g>
<g filter="url(#filter1_dd_688_3548)">
<path d="M637.266 676.94C656.469 667.164 669.037 647.939 660.738 628.078C656.137 617.066 650.532 610.918 639.517 607.081C627.762 602.987 617.119 604.605 608.522 613.607C598.739 623.851 598.998 638.58 608.654 647.818C611.318 650.367 613.09 651.85 616.638 652.862C622.2 654.448 610.873 643.221 610.54 636.358C610.219 629.739 610.154 624.755 614.667 619.895C620.091 614.055 626.959 613.656 634.654 615.735C644.49 618.393 649.856 625.761 651.249 635.846C651.988 641.192 650.995 644.412 649.257 649.523C647.51 654.66 646.357 657.87 642.449 661.638C638.616 665.333 635.399 666.222 630.362 667.95C625.148 669.739 621.969 670.605 616.46 670.4C605.787 670.004 599.318 666.043 591.918 658.352C584.071 650.196 581.43 642.909 580.755 631.613C580.133 621.199 582.348 614.884 587.337 605.716C594.31 592.901 601.699 586.034 615.424 581.061C633.202 574.621 663.334 587.999 663.334 587.999C663.334 587.999 709.124 622.532 743.046 622.433C765.808 622.366 799.163 606.66 799.163 606.66C799.163 606.66 773.983 651.714 747.081 667.935C720.986 683.67 671.084 685.652 671.084 685.652C671.084 685.652 681.199 692.462 688.403 695.358C699.125 699.67 717.322 699.618 717.322 699.618C717.322 699.618 694.077 715.45 677.088 722.586C674.536 723.658 672.152 724.702 669.876 725.699C657.946 730.925 649 734.844 634.493 734.558C610.761 734.089 596.525 725.526 579.24 709.281C559.018 690.274 549.441 644.787 549.441 644.787C549.441 644.787 579.683 670.454 602.915 679.308C606.042 680.5 607.697 681.62 611.005 682.135C614.356 682.658 619.687 681.881 619.687 681.881C619.687 681.881 630.912 680.175 637.266 676.94Z" fill="url(#paint1_linear_688_3548)"/>
</g>
<g filter="url(#filter2_dd_688_3548)">
<path d="M428.7 564.095C438.743 562.828 447.366 556.293 446.876 546.125C446.604 540.487 445.112 536.853 440.86 533.378C436.324 529.67 431.366 528.681 426.13 531.306C420.172 534.293 417.932 540.887 420.72 546.547C421.489 548.108 422.034 549.052 423.439 550.072C425.642 551.671 422.434 544.858 423.384 541.751C424.3 538.755 425.069 536.527 427.838 535.09C431.167 533.362 434.264 534.287 437.33 536.447C441.249 539.209 442.44 543.348 441.444 548.058C440.915 550.555 439.962 551.828 438.378 553.822C436.785 555.827 435.763 557.071 433.435 558.119C431.151 559.148 429.589 559.027 427.088 558.987C424.499 558.946 422.957 558.821 420.557 557.846C415.907 555.956 413.684 553.156 411.645 548.547C409.483 543.659 409.482 539.993 410.99 534.859C412.379 530.127 414.367 527.673 418.036 524.395C423.164 519.813 427.524 517.944 434.38 517.935C443.261 517.924 454.429 528.712 454.429 528.712C454.429 528.712 469.13 551.424 484.126 556.825C494.188 560.449 511.429 558.816 511.429 558.816C511.429 558.816 493.107 574.818 478.634 577.716C464.595 580.527 442.241 573.399 442.241 573.399C442.241 573.399 445.62 578.052 448.338 580.497C452.384 584.136 460.428 587.034 460.428 587.034C460.428 587.034 447.632 590.346 438.989 590.793C437.691 590.861 436.471 590.943 435.306 591.021C429.203 591.431 424.626 591.738 418.265 589.282C407.86 585.265 402.942 579.17 397.906 569.168C392.013 557.467 395.055 535.694 395.055 535.694C395.055 535.694 404.307 551.966 413.152 559.635C414.342 560.667 414.894 561.431 416.272 562.191C417.669 562.961 420.147 563.471 420.147 563.471C420.147 563.471 425.377 564.514 428.7 564.095Z" fill="url(#paint2_linear_688_3548)"/>
</g>
<g filter="url(#filter3_dd_688_3548)">
<path d="M649.928 423.716C653.992 421.888 658.731 422.366 660.879 426.299C662.069 428.48 662.342 430.188 661.542 432.468C660.688 434.902 659.051 436.411 656.482 436.625C653.559 436.869 651.205 434.905 650.954 432.139C650.885 431.376 650.874 430.896 651.167 430.191C651.628 429.085 651.986 432.381 653.055 433.33C654.086 434.246 654.886 434.907 656.256 434.811C657.903 434.697 658.855 433.639 659.511 432.125C660.351 430.188 659.849 428.36 658.394 426.819C657.623 426.002 656.973 425.742 655.92 425.356C654.862 424.968 654.193 424.735 653.078 424.875C651.984 425.012 651.424 425.416 650.494 426.004C649.531 426.613 648.98 427.014 648.302 427.931C646.988 429.707 646.795 431.27 647.086 433.469C647.395 435.801 648.235 437.179 649.979 438.762C651.586 440.222 652.896 440.688 655.026 441.078C658.003 441.624 660.071 441.326 662.649 439.757C665.988 437.725 667.71 431.11 667.71 431.11C667.71 431.11 668.025 419.204 672.421 413.736C675.371 410.066 682.223 406.726 682.223 406.726C682.223 406.726 671.669 404.916 665.567 407.146C659.647 409.309 652.883 417.114 652.883 417.114C652.883 417.114 653.085 414.591 653.545 413.049C654.231 410.754 656.589 407.82 656.589 407.82C656.589 407.82 651.021 409.51 647.671 411.324C647.168 411.597 646.691 411.846 646.236 412.083C643.848 413.329 642.058 414.263 640.231 416.645C637.243 420.541 636.793 423.959 637.194 428.872C637.664 434.62 643.8 442.103 643.8 442.103C643.8 442.103 643.545 433.867 645.109 428.957C645.32 428.296 645.352 427.883 645.695 427.281C646.043 426.671 646.858 425.911 646.858 425.911C646.858 425.911 648.583 424.32 649.928 423.716Z" fill="url(#paint3_linear_688_3548)"/>
</g>
<g filter="url(#filter4_dd_688_3548)">
<path d="M542.85 341.029C564.334 339.369 585.077 349.231 588.341 370.507C590.15 382.305 588.569 390.473 581.166 399.486C573.266 409.104 563.338 413.268 551.31 410.064C537.623 406.417 530.17 393.709 533.6 380.793C534.546 377.229 535.286 375.041 537.786 372.329C541.707 368.077 537.888 383.561 541.18 389.593C544.354 395.41 546.895 399.698 553.279 401.495C560.951 403.654 567.022 400.416 572.507 394.633C579.518 387.239 580.259 378.155 576.194 368.821C574.04 363.873 571.515 361.641 567.369 358.185C563.201 354.71 560.545 352.57 555.246 351.39C550.049 350.233 546.84 351.151 541.64 352.3C536.258 353.489 533.093 354.407 528.498 357.451C519.593 363.35 516.136 370.101 513.826 380.521C511.377 391.571 512.919 399.167 518.228 409.16C523.122 418.374 528.303 422.609 537.338 427.836C549.967 435.142 559.851 437.154 574.157 434.247C592.687 430.482 611.437 403.365 611.437 403.365C611.437 403.365 632.531 350.033 661.537 332.445C681.001 320.643 717.654 316.672 717.654 316.672C717.654 316.672 672.689 291.334 641.276 291.503C610.804 291.668 567.177 315.974 567.177 315.974C567.177 315.974 572.263 304.891 576.903 298.666C583.809 289.4 599.368 279.964 599.368 279.964C599.368 279.964 571.279 278.56 553.06 281.321C550.323 281.736 547.744 282.086 545.282 282.421C532.377 284.175 522.698 285.491 510.465 293.293C490.452 306.057 482.762 320.784 476.472 343.655C469.113 370.414 484.636 414.23 484.636 414.23C484.636 414.23 497.078 376.566 512.295 356.904C514.343 354.258 515.173 352.44 517.727 350.276C520.316 348.085 525.271 345.97 525.271 345.97C525.271 345.97 535.74 341.578 542.85 341.029Z" fill="url(#paint4_linear_688_3548)"/>
</g>
<g filter="url(#filter5_dd_688_3548)">
<path d="M805.901 321.422C805.901 321.422 791.303 336.785 780.41 344.738C774.02 349.403 770.428 352.148 763.312 355.601C756.146 359.078 751.852 360.676 744.063 362.337C737.783 363.677 734.133 364.36 727.715 364.115C722.382 363.911 714.22 361.941 714.22 361.941C714.22 361.941 725.607 368.31 733.642 369.924C739.074 371.016 742.262 371.203 747.792 370.902C754.075 370.56 763.598 367.785 763.598 367.785C763.598 367.785 758.266 373.969 753.824 376.499C748.697 379.419 745.152 379.997 739.282 380.586C732.075 381.309 728.008 379.593 720.849 378.475C714.535 377.488 711.119 376.179 704.78 375.367C696.289 374.281 691.403 373.656 682.884 374.449C675.141 375.17 663.432 378.702 663.432 378.702L645.988 387.749L627.32 410.067C627.32 410.067 636.217 389.548 644.383 377.924C651.095 368.37 654.814 362.576 663.97 355.348C674.521 347.018 681.931 343.722 694.936 340.346C703.686 338.075 708.875 337.712 717.915 337.534C725.561 337.383 729.815 338.526 737.457 338.836C752.687 339.454 761.861 342.69 776.481 338.4C789.207 334.665 805.901 321.422 805.901 321.422Z" fill="url(#paint5_linear_688_3548)"/>
</g>
<g filter="url(#filter6_dd_688_3548)">
<path d="M871.092 553.356C871.092 553.356 850.628 547.848 837.187 546.735C829.302 546.082 824.806 545.61 816.933 546.37C809.005 547.136 804.507 548.009 796.993 550.649C790.935 552.777 787.464 554.095 782.113 557.649C777.667 560.601 771.727 566.535 771.727 566.535C771.727 566.535 778.128 555.166 784.146 549.602C788.214 545.84 790.837 544.02 795.714 541.396C801.255 538.414 810.83 535.821 810.83 535.821C810.83 535.821 803.057 533.321 797.948 533.476C792.05 533.654 788.723 535.007 783.405 537.563C776.877 540.7 774.3 544.284 768.772 548.969C763.895 553.1 761.662 555.998 756.674 559.993C749.993 565.344 746.148 568.422 738.463 572.184C731.478 575.603 719.644 578.688 719.644 578.688L700.041 580.054L672.479 570.73C672.479 570.73 690.764 583.609 703.79 589.276C714.496 593.935 720.688 596.942 732.27 598.342C745.616 599.955 753.658 598.908 766.517 595.014C775.169 592.394 779.787 590.001 787.596 585.443C794.201 581.588 797.237 578.396 803.599 574.15C816.276 565.688 822.421 558.146 837.136 554.191C849.943 550.749 871.092 553.356 871.092 553.356Z" fill="url(#paint6_linear_688_3548)"/>
</g>
<g filter="url(#filter7_dd_688_3548)">
<path d="M362.512 651.896C362.512 651.896 382.976 657.404 396.417 658.517C404.302 659.17 408.798 659.642 416.671 658.882C424.599 658.116 429.097 657.243 436.611 654.603C442.67 652.475 446.14 651.157 451.492 647.603C455.937 644.651 461.878 638.717 461.878 638.717C461.878 638.717 455.476 650.086 449.459 655.65C445.391 659.412 442.767 661.232 437.89 663.856C432.349 666.838 422.775 669.431 422.775 669.431C422.775 669.431 430.548 671.931 435.657 671.777C441.555 671.598 444.882 670.245 450.2 667.689C456.728 664.552 459.305 660.968 464.833 656.284C469.709 652.152 471.942 649.254 476.931 645.259C483.612 639.908 487.457 636.83 495.142 633.068C502.127 629.649 513.961 626.564 513.961 626.564L533.563 625.198L561.125 634.522C561.125 634.522 542.841 621.643 529.815 615.976C519.108 611.318 512.916 608.31 501.334 606.91C487.989 605.297 479.946 606.344 467.087 610.238C458.435 612.858 453.817 615.251 446.008 619.809C439.403 623.664 436.367 626.856 430.006 631.102C417.328 639.564 411.184 647.106 396.469 651.061C383.661 654.503 362.512 651.896 362.512 651.896Z" fill="url(#paint7_linear_688_3548)"/>
</g>
<g filter="url(#filter8_dd_688_3548)">
<path d="M896.328 457.109C896.328 457.109 881.791 472.455 870.94 480.396C864.575 485.054 860.997 487.795 853.907 491.241C846.767 494.71 842.488 496.304 834.726 497.958C828.467 499.292 824.83 499.971 818.432 499.72C813.116 499.512 804.978 497.535 804.978 497.535C804.978 497.535 816.334 503.912 824.345 505.534C829.761 506.63 832.939 506.82 838.45 506.524C844.713 506.188 854.203 503.422 854.203 503.422C854.203 503.422 848.893 509.6 844.469 512.125C839.36 515.039 835.827 515.614 829.976 516.198C822.794 516.914 818.738 515.195 811.601 514.07C805.306 513.078 801.9 511.766 795.581 510.949C787.116 509.855 782.246 509.226 773.754 510.012C766.037 510.725 754.369 514.246 754.369 514.246L736.99 523.274L718.401 545.57C718.401 545.57 727.252 525.064 735.381 513.451C742.062 503.905 745.764 498.116 754.884 490.898C765.394 482.58 772.777 479.291 785.737 475.928C794.457 473.665 799.628 473.307 808.639 473.137C816.261 472.993 820.502 474.14 828.12 474.457C843.301 475.089 852.448 478.332 867.018 474.056C879.699 470.334 896.328 457.109 896.328 457.109Z" fill="url(#paint8_linear_688_3548)"/>
</g>
<g filter="url(#filter9_dd_688_3548)">
<path d="M879.713 395.485C879.713 395.485 859.25 389.976 845.808 388.863C837.923 388.21 833.427 387.738 825.554 388.498C817.626 389.264 813.129 390.137 805.614 392.777C799.556 394.905 796.085 396.224 790.734 399.777C786.289 402.729 780.348 408.663 780.348 408.663C780.348 408.663 786.749 397.294 792.767 391.73C796.835 387.968 799.459 386.148 804.335 383.524C809.877 380.542 819.451 377.949 819.451 377.949C819.451 377.949 811.678 375.449 806.569 375.604C800.671 375.783 797.344 377.136 792.026 379.691C785.498 382.829 782.921 386.412 777.393 391.097C772.517 395.228 770.283 398.126 765.295 402.121C758.614 407.472 754.769 410.55 747.084 414.312C740.099 417.731 728.265 420.816 728.265 420.816L708.662 422.182L681.1 412.858C681.1 412.858 699.385 425.737 712.411 431.404C723.117 436.063 729.309 439.07 740.891 440.47C754.237 442.083 762.279 441.036 775.138 437.142C783.79 434.522 788.408 432.129 796.217 427.571C802.822 423.717 805.859 420.525 812.22 416.278C824.897 407.816 831.042 400.275 845.757 396.32C858.564 392.877 879.713 395.485 879.713 395.485Z" fill="url(#paint9_linear_688_3548)"/>
</g>
<g filter="url(#filter10_dd_688_3548)">
<path d="M893.687 433.889C893.687 433.889 877.158 439.066 870.328 443.275C863.498 447.484 861.293 452.111 854.497 456.368C849.35 459.594 846.472 461.87 840.565 463.276C832.666 465.158 819.811 461.796 819.811 461.796C819.811 461.796 808.766 456.102 801.063 455.097C796.945 454.56 790.433 454.927 790.433 454.927L811.509 432.256C811.509 432.256 820.83 424.053 831.88 422.644C844.274 421.064 856.785 429.729 868.893 432.874C878.726 435.428 893.687 433.889 893.687 433.889Z" fill="url(#paint10_linear_688_3548)"/>
</g>
<g filter="url(#filter11_dd_688_3548)">
<path d="M512.055 489.916C507.9 489.428 505.522 489.505 501.34 489.706C496.827 489.922 494.343 490.62 489.849 491.099C479.979 492.15 473.911 496.084 464.507 492.979C460.207 491.559 457.85 490.291 454.312 487.471C449.941 483.986 447.631 481.421 445.334 476.316C443.515 472.274 442.829 465.232 442.829 465.232C442.829 465.232 448.969 471.545 453.767 474.365C459.018 477.451 462.404 478.715 468.417 479.734C476.664 481.131 481.467 478.88 489.792 477.923C497.433 477.045 501.618 474.779 509.294 475.137C513.604 475.338 520.209 476.811 520.209 476.811L526.525 479.391C526.525 479.391 526.106 470.349 525.016 464.681C523.542 457.014 523.046 452.272 518.941 445.649C514.836 439.026 511.196 435.948 504.623 431.775C498.82 428.092 495.059 426.494 488.31 425.151C479.242 423.347 473.269 423.131 464.642 426.543C456.654 429.702 447.368 440.205 447.368 440.205C447.368 440.205 453.751 438.253 457.895 437.209C464.81 435.466 468.686 433.974 475.801 433.655C479.605 433.484 481.953 432.753 485.541 434.004C489.256 435.3 490.762 437.324 493.576 440.07C496.588 443.01 498.222 444.856 500.204 448.576C501.55 451.102 502.875 455.408 502.875 455.408C502.875 455.408 495.744 455.137 491.251 455.825C486.357 456.574 483.918 458.393 479.051 459.309C473.844 460.29 470.801 461.074 465.544 460.493C461.609 460.059 459.33 459.586 455.748 457.913C451.57 455.962 450.323 453.102 446.328 450.802C443.932 449.422 439.945 447.734 439.945 447.734C439.945 447.734 439.283 454.28 438.417 458.399C437.84 461.149 436.992 462.585 436.634 465.371C436.19 468.831 436.507 470.827 436.857 474.294C437.313 478.801 437.613 481.404 439.153 485.657C440.913 490.52 442.475 493.12 445.692 497.16C449.502 501.945 452.272 504.284 457.528 507.409C464.866 511.771 469.965 513.137 478.505 513.615C485.315 513.996 489.121 512.578 495.847 511.386C501.164 510.443 504.067 509.509 509.365 508.459C514.464 507.448 517.272 506.241 522.462 506.09C525.401 506.004 529.975 506.509 529.975 506.509C529.975 506.509 529.792 502.366 528.833 499.956C527.975 497.8 527.291 496.585 525.663 494.936C523.549 492.793 521.779 492.167 518.936 491.171C516.36 490.268 514.769 490.234 512.055 489.916Z" fill="url(#paint11_linear_688_3548)"/>
</g>
<g filter="url(#filter12_dd_688_3548)">
<path d="M442.614 304.786C447.418 304.84 449.408 308.93 451.585 313.212C455.262 320.444 449.174 325.663 448.656 333.749C447.307 354.853 456.23 387.373 456.255 387.465L447.327 421.824C447.293 421.871 434.92 438.957 422.967 441.822C404.396 446.273 398.674 423.099 380.281 417.963C368.357 414.633 348.812 414.194 348.774 414.193C348.774 414.193 361.501 429.222 364.798 440.946C367.906 452 365.054 458.866 365.504 470.34C365.868 479.621 359.459 488.311 366.728 494.093C371.626 497.989 376.92 493.723 382.592 496.369C387.345 498.587 390.708 500.125 393.02 504.833C395.501 509.888 395.507 514.275 392.871 519.251C390.121 524.44 384.41 523.324 380.326 527.544C375.473 532.558 373.133 536.332 371.608 543.141C369.526 552.442 379.665 558.361 375.984 567.152C373.563 572.932 368.034 573.326 364.889 578.747C358.535 589.699 366.971 598.868 363.911 611.154C361.296 621.655 361.772 630.893 352.447 636.383C340.706 643.295 329.835 634.962 318.887 626.852C307.821 618.655 299.909 597.131 299.909 597.131C299.854 597.14 242.431 606.521 205.715 581.763C196.481 575.536 190.587 572.886 182.41 565.326C174.145 557.683 164.041 543.118 164.041 543.118C164.009 543.082 151.034 528.604 152.486 517.896C153.195 512.676 153.849 509.038 157.722 505.47C161.957 501.569 171.929 501.47 171.929 501.47C171.929 501.47 154.991 498.284 151.08 489.816C148.98 485.272 146.891 481.249 149.651 477.077C152.156 473.289 155.995 472.474 160.524 472.92C164.583 473.32 166.084 476.028 169.646 478.019C174.734 480.863 178.329 481.418 182.676 485.302C188.715 490.697 193.227 503.14 193.227 503.14C193.256 503.218 197.955 516.04 202.325 523.577C207.429 532.378 208.828 540.099 218.088 544.328C225.918 547.903 231.773 546.784 240.113 544.698C256.562 540.583 266.087 497.868 270.879 514.132C271.702 516.924 271.902 518.607 271.882 521.516C271.856 525.195 268.854 527.316 270.13 530.771C271.743 535.141 275.893 536.636 280.553 536.597C284.754 536.562 287.392 534.893 290.125 531.712C293.72 527.528 294.655 523.017 292.753 517.83C290.605 511.969 285.593 510.426 279.572 508.757C274.117 507.244 270.244 506.869 265.09 509.19C259.157 511.863 258.466 516.885 254.492 522.031C251.627 525.741 251.633 529.724 247.378 531.701C244.739 532.927 242.898 532.622 239.986 532.686C234.461 532.808 230.786 532.935 226.08 530.03C218.644 525.441 216.984 509.616 216.981 509.594C216.973 509.577 208.227 491.426 200.215 481.458C195.249 475.28 192.147 472.013 186.181 466.791C172.146 454.506 149.069 451.779 144.484 443.485C139.899 435.191 134.489 428.269 138.868 419.877C142.24 413.419 147.423 410.745 154.677 409.95C157.267 409.666 158.775 409.82 161.343 410.264C164.271 410.77 166.041 411.069 168.585 412.605C171.741 414.511 173.804 416.075 174.95 419.575C175.603 421.57 175.791 422.875 175.376 424.93C174.916 427.211 174.171 428.542 172.47 430.129C170.937 431.56 169.768 432.302 167.685 432.572C165.304 432.881 161.588 433.352 161.747 430.959C161.886 428.866 164.817 429.725 166.532 428.516C168.035 427.456 170.294 427.164 170.015 425.346C169.749 423.62 167.79 423.63 166.105 423.161C163.298 422.379 161.025 422.381 158.713 424.146C156.864 425.558 156.068 427.033 155.807 429.345C155.217 434.579 161.618 436.247 166.809 437.2C172.902 438.318 178.344 437.064 181.742 431.9C185.199 426.646 182.992 421.602 180.462 415.832C175.036 403.461 160.935 407.826 148.313 402.98C128.451 395.355 114.744 396.364 97.0438 384.56C87.6272 378.28 78.9094 376.2 75.1923 365.523C72.9597 359.109 71.7917 354.309 74.6397 348.155C80.9184 334.588 96.9433 355.325 111.574 358.564C175.399 372.695 221.166 322.221 278.801 353.098C280.856 354.199 281.69 356.191 284.013 356.012C288.2 355.687 282.383 349.421 283.159 345.3C284.349 338.987 287.06 335.224 292.454 331.731C296.598 329.048 299.69 328.115 304.63 328.303C310.482 328.525 314.189 338.353 318.387 334.286C320.517 332.223 318.723 329.254 320.717 327.06C322.673 324.908 324.69 324.678 327.531 324.045C329.581 323.589 330.96 324.445 332.894 323.63C337.982 321.486 330.144 311.003 335.523 309.748C339.492 308.823 340.712 313.761 344.645 314.847C349.174 316.097 352.076 313.767 356.672 314.746C362.942 316.082 364.598 322.596 371.005 322.757C379.344 322.967 380.349 312.834 388.267 310.231C395.95 307.706 408.684 301.795 408.989 309.873C409.079 312.27 407.461 313.402 407.386 315.799C407.062 326.201 425.517 323.018 434.046 317.055C438.838 313.705 436.759 304.72 442.614 304.786Z" fill="url(#paint12_linear_688_3548)"/>
</g>
<path d="M241.59 391.226C241.59 391.226 248.066 391.563 252.093 392.483C255.443 393.248 260.468 395.187 260.468 395.187C260.468 395.187 266.296 400.668 269.832 404.375C273.608 408.334 275.007 411.26 279.137 414.849C284.736 419.714 295.429 424.614 295.429 424.614C295.429 424.614 281.812 418.839 273.494 414.331C267.17 410.904 263.649 408.897 257.705 404.847C253.398 401.913 250.824 400.421 246.996 396.884C244.752 394.81 241.59 391.226 241.59 391.226Z" fill="#E4DFD8"/>
</g>
<defs>
<filter id="filter0_dd_688_3548" x="509.341" y="450.731" width="266.848" height="125.79" filterUnits="userSpaceOnUse" color-interpolation-filters="sRGB">
<feFlood flood-opacity="0" result="BackgroundImageFix"/>
<feColorMatrix in="SourceAlpha" type="matrix" values="0 0 0 0 0 0 0 0 0 0 0 0 0 0 0 0 0 0 127 0" result="hardAlpha"/>
<feOffset dy="-1.63509"/>
<feGaussianBlur stdDeviation="1.22679"/>
<feComposite in2="hardAlpha" operator="out"/>
<feColorMatrix type="matrix" values="0 0 0 0 0.282353 0 0 0 0 0.164706 0 0 0 0 0.0627451 0 0 0 1 0"/>
<feBlend mode="normal" in2="BackgroundImageFix" result="effect1_dropShadow_688_3548"/>
<feColorMatrix in="SourceAlpha" type="matrix" values="0 0 0 0 0 0 0 0 0 0 0 0 0 0 0 0 0 0 127 0" result="hardAlpha"/>
<feOffset dy="2.45357"/>
<feGaussianBlur stdDeviation="1.09551"/>
<feComposite in2="hardAlpha" operator="out"/>
<feColorMatrix type="matrix" values="0 0 0 0 1 0 0 0 0 1 0 0 0 0 1 0 0 0 0.75 0"/>
<feBlend mode="normal" in2="effect1_dropShadow_688_3548" result="effect2_dropShadow_688_3548"/>
<feBlend mode="normal" in="SourceGraphic" in2="effect2_dropShadow_688_3548" result="shape"/>
</filter>
<filter id="filter1_dd_688_3548" x="546.987" y="575.22" width="254.63" height="163.998" filterUnits="userSpaceOnUse" color-interpolation-filters="sRGB">
<feFlood flood-opacity="0" result="BackgroundImageFix"/>
<feColorMatrix in="SourceAlpha" type="matrix" values="0 0 0 0 0 0 0 0 0 0 0 0 0 0 0 0 0 0 127 0" result="hardAlpha"/>
<feOffset dy="-1.63509"/>
<feGaussianBlur stdDeviation="1.22679"/>
<feComposite in2="hardAlpha" operator="out"/>
<feColorMatrix type="matrix" values="0 0 0 0 0.282353 0 0 0 0 0.164706 0 0 0 0 0.0627451 0 0 0 1 0"/>
<feBlend mode="normal" in2="BackgroundImageFix" result="effect1_dropShadow_688_3548"/>
<feColorMatrix in="SourceAlpha" type="matrix" values="0 0 0 0 0 0 0 0 0 0 0 0 0 0 0 0 0 0 127 0" result="hardAlpha"/>
<feOffset dy="2.45357"/>
<feGaussianBlur stdDeviation="1.09551"/>
<feComposite in2="hardAlpha" operator="out"/>
<feColorMatrix type="matrix" values="0 0 0 0 1 0 0 0 0 1 0 0 0 0 1 0 0 0 0.75 0"/>
<feBlend mode="normal" in2="effect1_dropShadow_688_3548" result="effect2_dropShadow_688_3548"/>
<feBlend mode="normal" in="SourceGraphic" in2="effect2_dropShadow_688_3548" result="shape"/>
</filter>
<filter id="filter2_dd_688_3548" x="391.817" y="513.847" width="122.065" height="82.0978" filterUnits="userSpaceOnUse" color-interpolation-filters="sRGB">
<feFlood flood-opacity="0" result="BackgroundImageFix"/>
<feColorMatrix in="SourceAlpha" type="matrix" values="0 0 0 0 0 0 0 0 0 0 0 0 0 0 0 0 0 0 127 0" result="hardAlpha"/>
<feOffset dy="-1.63509"/>
<feGaussianBlur stdDeviation="1.22679"/>
<feComposite in2="hardAlpha" operator="out"/>
<feColorMatrix type="matrix" values="0 0 0 0 0.282353 0 0 0 0 0.164706 0 0 0 0 0.0627451 0 0 0 1 0"/>
<feBlend mode="normal" in2="BackgroundImageFix" result="effect1_dropShadow_688_3548"/>
<feColorMatrix in="SourceAlpha" type="matrix" values="0 0 0 0 0 0 0 0 0 0 0 0 0 0 0 0 0 0 127 0" result="hardAlpha"/>
<feOffset dy="2.45357"/>
<feGaussianBlur stdDeviation="1.09551"/>
<feComposite in2="hardAlpha" operator="out"/>
<feColorMatrix type="matrix" values="0 0 0 0 1 0 0 0 0 1 0 0 0 0 1 0 0 0 0.75 0"/>
<feBlend mode="normal" in2="effect1_dropShadow_688_3548" result="effect2_dropShadow_688_3548"/>
<feBlend mode="normal" in="SourceGraphic" in2="effect2_dropShadow_688_3548" result="shape"/>
</filter>
<filter id="filter3_dd_688_3548" x="634.616" y="401.944" width="50.0614" height="44.8033" filterUnits="userSpaceOnUse" color-interpolation-filters="sRGB">
<feFlood flood-opacity="0" result="BackgroundImageFix"/>
<feColorMatrix in="SourceAlpha" type="matrix" values="0 0 0 0 0 0 0 0 0 0 0 0 0 0 0 0 0 0 127 0" result="hardAlpha"/>
<feOffset dy="-1.63509"/>
<feGaussianBlur stdDeviation="1.22679"/>
<feComposite in2="hardAlpha" operator="out"/>
<feColorMatrix type="matrix" values="0 0 0 0 0.282353 0 0 0 0 0.164706 0 0 0 0 0.0627451 0 0 0 1 0"/>
<feBlend mode="normal" in2="BackgroundImageFix" result="effect1_dropShadow_688_3548"/>
<feColorMatrix in="SourceAlpha" type="matrix" values="0 0 0 0 0 0 0 0 0 0 0 0 0 0 0 0 0 0 127 0" result="hardAlpha"/>
<feOffset dy="2.45357"/>
<feGaussianBlur stdDeviation="1.09551"/>
<feComposite in2="hardAlpha" operator="out"/>
<feColorMatrix type="matrix" values="0 0 0 0 1 0 0 0 0 1 0 0 0 0 1 0 0 0 0.75 0"/>
<feBlend mode="normal" in2="effect1_dropShadow_688_3548" result="effect2_dropShadow_688_3548"/>
<feBlend mode="normal" in="SourceGraphic" in2="effect2_dropShadow_688_3548" result="shape"/>
</filter>
<filter id="filter4_dd_688_3548" x="472.039" y="275.519" width="248.069" height="164.652" filterUnits="userSpaceOnUse" color-interpolation-filters="sRGB">
<feFlood flood-opacity="0" result="BackgroundImageFix"/>
<feColorMatrix in="SourceAlpha" type="matrix" values="0 0 0 0 0 0 0 0 0 0 0 0 0 0 0 0 0 0 127 0" result="hardAlpha"/>
<feOffset dy="-1.63509"/>
<feGaussianBlur stdDeviation="1.22679"/>
<feComposite in2="hardAlpha" operator="out"/>
<feColorMatrix type="matrix" values="0 0 0 0 0.282353 0 0 0 0 0.164706 0 0 0 0 0.0627451 0 0 0 1 0"/>
<feBlend mode="normal" in2="BackgroundImageFix" result="effect1_dropShadow_688_3548"/>
<feColorMatrix in="SourceAlpha" type="matrix" values="0 0 0 0 0 0 0 0 0 0 0 0 0 0 0 0 0 0 127 0" result="hardAlpha"/>
<feOffset dy="2.45357"/>
<feGaussianBlur stdDeviation="1.09551"/>
<feComposite in2="hardAlpha" operator="out"/>
<feColorMatrix type="matrix" values="0 0 0 0 1 0 0 0 0 1 0 0 0 0 1 0 0 0 0.75 0"/>
<feBlend mode="normal" in2="effect1_dropShadow_688_3548" result="effect2_dropShadow_688_3548"/>
<feBlend mode="normal" in="SourceGraphic" in2="effect2_dropShadow_688_3548" result="shape"/>
</filter>
<filter id="filter5_dd_688_3548" x="624.866" y="317.333" width="183.488" height="97.3784" filterUnits="userSpaceOnUse" color-interpolation-filters="sRGB">
<feFlood flood-opacity="0" result="BackgroundImageFix"/>
<feColorMatrix in="SourceAlpha" type="matrix" values="0 0 0 0 0 0 0 0 0 0 0 0 0 0 0 0 0 0 127 0" result="hardAlpha"/>
<feOffset dy="-1.63509"/>
<feGaussianBlur stdDeviation="1.22679"/>
<feComposite in2="hardAlpha" operator="out"/>
<feColorMatrix type="matrix" values="0 0 0 0 0.282353 0 0 0 0 0.164706 0 0 0 0 0.0627451 0 0 0 1 0"/>
<feBlend mode="normal" in2="BackgroundImageFix" result="effect1_dropShadow_688_3548"/>
<feColorMatrix in="SourceAlpha" type="matrix" values="0 0 0 0 0 0 0 0 0 0 0 0 0 0 0 0 0 0 127 0" result="hardAlpha"/>
<feOffset dy="2.45357"/>
<feGaussianBlur stdDeviation="1.09551"/>
<feComposite in2="hardAlpha" operator="out"/>
<feColorMatrix type="matrix" values="0 0 0 0 1 0 0 0 0 1 0 0 0 0 1 0 0 0 0.75 0"/>
<feBlend mode="normal" in2="effect1_dropShadow_688_3548" result="effect2_dropShadow_688_3548"/>
<feBlend mode="normal" in="SourceGraphic" in2="effect2_dropShadow_688_3548" result="shape"/>
</filter>
<filter id="filter6_dd_688_3548" x="670.026" y="529.38" width="203.52" height="74.335" filterUnits="userSpaceOnUse" color-interpolation-filters="sRGB">
<feFlood flood-opacity="0" result="BackgroundImageFix"/>
<feColorMatrix in="SourceAlpha" type="matrix" values="0 0 0 0 0 0 0 0 0 0 0 0 0 0 0 0 0 0 127 0" result="hardAlpha"/>
<feOffset dy="-1.63509"/>
<feGaussianBlur stdDeviation="1.22679"/>
<feComposite in2="hardAlpha" operator="out"/>
<feColorMatrix type="matrix" values="0 0 0 0 0.282353 0 0 0 0 0.164706 0 0 0 0 0.0627451 0 0 0 1 0"/>
<feBlend mode="normal" in2="BackgroundImageFix" result="effect1_dropShadow_688_3548"/>
<feColorMatrix in="SourceAlpha" type="matrix" values="0 0 0 0 0 0 0 0 0 0 0 0 0 0 0 0 0 0 127 0" result="hardAlpha"/>
<feOffset dy="2.45357"/>
<feGaussianBlur stdDeviation="1.09551"/>
<feComposite in2="hardAlpha" operator="out"/>
<feColorMatrix type="matrix" values="0 0 0 0 1 0 0 0 0 1 0 0 0 0 1 0 0 0 0.75 0"/>
<feBlend mode="normal" in2="effect1_dropShadow_688_3548" result="effect2_dropShadow_688_3548"/>
<feBlend mode="normal" in="SourceGraphic" in2="effect2_dropShadow_688_3548" result="shape"/>
</filter>
<filter id="filter7_dd_688_3548" x="360.058" y="602.093" width="203.52" height="74.335" filterUnits="userSpaceOnUse" color-interpolation-filters="sRGB">
<feFlood flood-opacity="0" result="BackgroundImageFix"/>
<feColorMatrix in="SourceAlpha" type="matrix" values="0 0 0 0 0 0 0 0 0 0 0 0 0 0 0 0 0 0 127 0" result="hardAlpha"/>
<feOffset dy="-1.63509"/>
<feGaussianBlur stdDeviation="1.22679"/>
<feComposite in2="hardAlpha" operator="out"/>
<feColorMatrix type="matrix" values="0 0 0 0 0.282353 0 0 0 0 0.164706 0 0 0 0 0.0627451 0 0 0 1 0"/>
<feBlend mode="normal" in2="BackgroundImageFix" result="effect1_dropShadow_688_3548"/>
<feColorMatrix in="SourceAlpha" type="matrix" values="0 0 0 0 0 0 0 0 0 0 0 0 0 0 0 0 0 0 127 0" result="hardAlpha"/>
<feOffset dy="2.45357"/>
<feGaussianBlur stdDeviation="1.09551"/>
<feComposite in2="hardAlpha" operator="out"/>
<feColorMatrix type="matrix" values="0 0 0 0 1 0 0 0 0 1 0 0 0 0 1 0 0 0 0.75 0"/>
<feBlend mode="normal" in2="effect1_dropShadow_688_3548" result="effect2_dropShadow_688_3548"/>
<feBlend mode="normal" in="SourceGraphic" in2="effect2_dropShadow_688_3548" result="shape"/>
</filter>
<filter id="filter8_dd_688_3548" x="715.948" y="453.02" width="182.833" height="97.1943" filterUnits="userSpaceOnUse" color-interpolation-filters="sRGB">
<feFlood flood-opacity="0" result="BackgroundImageFix"/>
<feColorMatrix in="SourceAlpha" type="matrix" values="0 0 0 0 0 0 0 0 0 0 0 0 0 0 0 0 0 0 127 0" result="hardAlpha"/>
<feOffset dy="-1.63509"/>
<feGaussianBlur stdDeviation="1.22679"/>
<feComposite in2="hardAlpha" operator="out"/>
<feColorMatrix type="matrix" values="0 0 0 0 0.282353 0 0 0 0 0.164706 0 0 0 0 0.0627451 0 0 0 1 0"/>
<feBlend mode="normal" in2="BackgroundImageFix" result="effect1_dropShadow_688_3548"/>
<feColorMatrix in="SourceAlpha" type="matrix" values="0 0 0 0 0 0 0 0 0 0 0 0 0 0 0 0 0 0 127 0" result="hardAlpha"/>
<feOffset dy="2.45357"/>
<feGaussianBlur stdDeviation="1.09551"/>
<feComposite in2="hardAlpha" operator="out"/>
<feColorMatrix type="matrix" values="0 0 0 0 1 0 0 0 0 1 0 0 0 0 1 0 0 0 0.75 0"/>
<feBlend mode="normal" in2="effect1_dropShadow_688_3548" result="effect2_dropShadow_688_3548"/>
<feBlend mode="normal" in="SourceGraphic" in2="effect2_dropShadow_688_3548" result="shape"/>
</filter>
<filter id="filter9_dd_688_3548" x="678.647" y="371.508" width="203.52" height="74.335" filterUnits="userSpaceOnUse" color-interpolation-filters="sRGB">
<feFlood flood-opacity="0" result="BackgroundImageFix"/>
<feColorMatrix in="SourceAlpha" type="matrix" values="0 0 0 0 0 0 0 0 0 0 0 0 0 0 0 0 0 0 127 0" result="hardAlpha"/>
<feOffset dy="-1.63509"/>
<feGaussianBlur stdDeviation="1.22679"/>
<feComposite in2="hardAlpha" operator="out"/>
<feColorMatrix type="matrix" values="0 0 0 0 0.282353 0 0 0 0 0.164706 0 0 0 0 0.0627451 0 0 0 1 0"/>
<feBlend mode="normal" in2="BackgroundImageFix" result="effect1_dropShadow_688_3548"/>
<feColorMatrix in="SourceAlpha" type="matrix" values="0 0 0 0 0 0 0 0 0 0 0 0 0 0 0 0 0 0 127 0" result="hardAlpha"/>
<feOffset dy="2.45357"/>
<feGaussianBlur stdDeviation="1.09551"/>
<feComposite in2="hardAlpha" operator="out"/>
<feColorMatrix type="matrix" values="0 0 0 0 1 0 0 0 0 1 0 0 0 0 1 0 0 0 0.75 0"/>
<feBlend mode="normal" in2="effect1_dropShadow_688_3548" result="effect2_dropShadow_688_3548"/>
<feBlend mode="normal" in="SourceGraphic" in2="effect2_dropShadow_688_3548" result="shape"/>
</filter>
<filter id="filter10_dd_688_3548" x="787.979" y="418.365" width="108.162" height="50.1278" filterUnits="userSpaceOnUse" color-interpolation-filters="sRGB">
<feFlood flood-opacity="0" result="BackgroundImageFix"/>
<feColorMatrix in="SourceAlpha" type="matrix" values="0 0 0 0 0 0 0 0 0 0 0 0 0 0 0 0 0 0 127 0" result="hardAlpha"/>
<feOffset dy="-1.63509"/>
<feGaussianBlur stdDeviation="1.22679"/>
<feComposite in2="hardAlpha" operator="out"/>
<feColorMatrix type="matrix" values="0 0 0 0 0.282353 0 0 0 0 0.164706 0 0 0 0 0.0627451 0 0 0 1 0"/>
<feBlend mode="normal" in2="BackgroundImageFix" result="effect1_dropShadow_688_3548"/>
<feColorMatrix in="SourceAlpha" type="matrix" values="0 0 0 0 0 0 0 0 0 0 0 0 0 0 0 0 0 0 127 0" result="hardAlpha"/>
<feOffset dy="2.45357"/>
<feGaussianBlur stdDeviation="1.09551"/>
<feComposite in2="hardAlpha" operator="out"/>
<feColorMatrix type="matrix" values="0 0 0 0 1 0 0 0 0 1 0 0 0 0 1 0 0 0 0.75 0"/>
<feBlend mode="normal" in2="effect1_dropShadow_688_3548" result="effect2_dropShadow_688_3548"/>
<feBlend mode="normal" in="SourceGraphic" in2="effect2_dropShadow_688_3548" result="shape"/>
</filter>
<filter id="filter11_dd_688_3548" x="433.962" y="419.777" width="98.4667" height="98.5453" filterUnits="userSpaceOnUse" color-interpolation-filters="sRGB">
<feFlood flood-opacity="0" result="BackgroundImageFix"/>
<feColorMatrix in="SourceAlpha" type="matrix" values="0 0 0 0 0 0 0 0 0 0 0 0 0 0 0 0 0 0 127 0" result="hardAlpha"/>
<feOffset dy="-1.63509"/>
<feGaussianBlur stdDeviation="1.22679"/>
<feComposite in2="hardAlpha" operator="out"/>
<feColorMatrix type="matrix" values="0 0 0 0 0.282353 0 0 0 0 0.164706 0 0 0 0 0.0627451 0 0 0 1 0"/>
<feBlend mode="normal" in2="BackgroundImageFix" result="effect1_dropShadow_688_3548"/>
<feColorMatrix in="SourceAlpha" type="matrix" values="0 0 0 0 0 0 0 0 0 0 0 0 0 0 0 0 0 0 127 0" result="hardAlpha"/>
<feOffset dy="2.45357"/>
<feGaussianBlur stdDeviation="1.09551"/>
<feComposite in2="hardAlpha" operator="out"/>
<feColorMatrix type="matrix" values="0 0 0 0 1 0 0 0 0 1 0 0 0 0 1 0 0 0 0.75 0"/>
<feBlend mode="normal" in2="effect1_dropShadow_688_3548" result="effect2_dropShadow_688_3548"/>
<feBlend mode="normal" in="SourceGraphic" in2="effect2_dropShadow_688_3548" result="shape"/>
</filter>
<filter id="filter12_dd_688_3548" x="69.7859" y="300.142" width="389.086" height="343.881" filterUnits="userSpaceOnUse" color-interpolation-filters="sRGB">
<feFlood flood-opacity="0" result="BackgroundImageFix"/>
<feColorMatrix in="SourceAlpha" type="matrix" values="0 0 0 0 0 0 0 0 0 0 0 0 0 0 0 0 0 0 127 0" result="hardAlpha"/>
<feOffset dx="-0.981056" dy="-2.45264"/>
<feGaussianBlur stdDeviation="1.09551"/>
<feComposite in2="hardAlpha" operator="out"/>
<feColorMatrix type="matrix" values="0 0 0 0 0.509804 0 0 0 0 0.4 0 0 0 0 0.278431 0 0 0 1 0"/>
<feBlend mode="normal" in2="BackgroundImageFix" result="effect1_dropShadow_688_3548"/>
<feColorMatrix in="SourceAlpha" type="matrix" values="0 0 0 0 0 0 0 0 0 0 0 0 0 0 0 0 0 0 127 0" result="hardAlpha"/>
<feOffset dy="2.45264"/>
<feGaussianBlur stdDeviation="1.30807"/>
<feComposite in2="hardAlpha" operator="out"/>
<feColorMatrix type="matrix" values="0 0 0 0 1 0 0 0 0 1 0 0 0 0 1 0 0 0 0.75 0"/>
<feBlend mode="normal" in2="effect1_dropShadow_688_3548" result="effect2_dropShadow_688_3548"/>
<feBlend mode="normal" in="SourceGraphic" in2="effect2_dropShadow_688_3548" result="shape"/>
</filter>
<linearGradient id="paint0_linear_688_3548" x1="772.622" y1="456.494" x2="697.638" y2="660.455" gradientUnits="userSpaceOnUse">
<stop stop-color="#E5D3C4"/>
<stop offset="0.450083" stop-color="#A58E6C"/>
<stop offset="1" stop-color="#654628"/>
</linearGradient>
<linearGradient id="paint1_linear_688_3548" x1="801.368" y1="614.101" x2="579.157" y2="499.36" gradientUnits="userSpaceOnUse">
<stop stop-color="#E5D3C4"/>
<stop offset="0.450083" stop-color="#A58E6C"/>
<stop offset="1" stop-color="#654628"/>
</linearGradient>
<linearGradient id="paint2_linear_688_3548" x1="511.213" y1="562.48" x2="430.816" y2="476.334" gradientUnits="userSpaceOnUse">
<stop stop-color="#E5D3C4"/>
<stop offset="0.450083" stop-color="#A58E6C"/>
<stop offset="1" stop-color="#654628"/>
</linearGradient>
<linearGradient id="paint3_linear_688_3548" x1="681.302" y1="405.399" x2="670.85" y2="456.205" gradientUnits="userSpaceOnUse">
<stop stop-color="#E5D3C4"/>
<stop offset="0.450083" stop-color="#A58E6C"/>
<stop offset="1" stop-color="#654628"/>
</linearGradient>
<linearGradient id="paint4_linear_688_3548" x1="715.66" y1="309.172" x2="585.765" y2="522.88" gradientUnits="userSpaceOnUse">
<stop stop-color="#E5D3C4"/>
<stop offset="0.450083" stop-color="#A58E6C"/>
<stop offset="1" stop-color="#654628"/>
</linearGradient>
<linearGradient id="paint5_linear_688_3548" x1="809.386" y1="333.508" x2="792.436" y2="442.92" gradientUnits="userSpaceOnUse">
<stop stop-color="#E5D3C4"/>
<stop offset="0.450083" stop-color="#A58E6C"/>
<stop offset="1" stop-color="#654628"/>
</linearGradient>
<linearGradient id="paint6_linear_688_3548" x1="867.771" y1="541.224" x2="796.301" y2="456.665" gradientUnits="userSpaceOnUse">
<stop stop-color="#E5D3C4"/>
<stop offset="0.450083" stop-color="#A58E6C"/>
<stop offset="1" stop-color="#654628"/>
</linearGradient>
<linearGradient id="paint7_linear_688_3548" x1="365.834" y1="664.028" x2="437.304" y2="748.587" gradientUnits="userSpaceOnUse">
<stop stop-color="#E5D3C4"/>
<stop offset="0.450083" stop-color="#A58E6C"/>
<stop offset="1" stop-color="#654628"/>
</linearGradient>
<linearGradient id="paint8_linear_688_3548" x1="899.813" y1="469.195" x2="882.729" y2="578.519" gradientUnits="userSpaceOnUse">
<stop stop-color="#E5D3C4"/>
<stop offset="0.450083" stop-color="#A58E6C"/>
<stop offset="1" stop-color="#654628"/>
</linearGradient>
<linearGradient id="paint9_linear_688_3548" x1="876.392" y1="383.352" x2="804.922" y2="298.793" gradientUnits="userSpaceOnUse">
<stop stop-color="#E5D3C4"/>
<stop offset="0.450083" stop-color="#A58E6C"/>
<stop offset="1" stop-color="#654628"/>
</linearGradient>
<linearGradient id="paint10_linear_688_3548" x1="891.537" y1="426.068" x2="865.411" y2="502.837" gradientUnits="userSpaceOnUse">
<stop stop-color="#E5D3C4"/>
<stop offset="0.450083" stop-color="#A58E6C"/>
<stop offset="1" stop-color="#654628"/>
</linearGradient>
<linearGradient id="paint11_linear_688_3548" x1="528.5" y1="508.54" x2="491.084" y2="394.487" gradientUnits="userSpaceOnUse">
<stop stop-color="#E5D3C4"/>
<stop offset="0.450083" stop-color="#A58E6C"/>
<stop offset="1" stop-color="#654628"/>
</linearGradient>
<linearGradient id="paint12_linear_688_3548" x1="340.19" y1="246.345" x2="333.329" y2="676.429" gradientUnits="userSpaceOnUse">
<stop stop-color="#E5D3C4"/>
<stop offset="0.450083" stop-color="#A58E6C"/>
<stop offset="1" stop-color="#654628"/>
</linearGradient>
</defs>
</svg>
