<svg width="232" height="104" viewBox="0 0 232 104" fill="none" xmlns="http://www.w3.org/2000/svg">
<path d="M180.783 46.6268C180.764 46.6781 180.93 46.7885 181.223 46.9916C181.51 47.2058 181.914 47.5572 182.235 48.1451C182.551 48.7252 182.76 49.572 182.588 50.5169C182.421 51.4618 181.842 52.438 180.744 53.0348C179.679 53.644 178.206 53.8537 176.749 53.48C175.274 53.1107 173.816 52.1301 172.397 50.8695C171.681 50.2391 170.97 49.5374 170.213 48.8022C169.458 48.0726 168.71 47.3296 167.951 46.5286C166.437 44.9344 164.909 43.1762 163.371 41.2696C160.287 37.4598 157.175 33.0442 153.628 28.3933C151.848 26.0683 149.956 23.6999 147.836 21.3526C145.693 19.0244 143.265 16.7106 140.192 14.9992C138.658 14.1558 136.95 13.4787 135.106 13.1786C133.254 12.8885 131.326 12.9978 129.501 13.4865C127.674 13.9751 125.873 14.8297 124.37 16.2041C123.631 16.8813 122.943 17.7314 122.485 18.6261C122.245 19.0679 122.004 19.5096 121.842 19.9916L121.572 20.7022L121.382 21.4397C120.897 23.4143 120.938 25.5038 121.415 27.4383C121.882 29.3817 122.704 31.2046 123.75 32.8769C124.796 34.5469 126.083 36.0887 127.57 37.4107C129.021 38.7372 130.623 39.9008 132.318 40.9104C135.711 42.933 139.369 44.3342 143.071 45.1977C144.921 45.6328 146.783 45.9507 148.644 46.1437C150.509 46.3289 152.362 46.3936 154.17 46.3881C157.8 46.368 161.478 46.0857 164.967 44.8273C165.83 44.5261 166.697 44.1066 167.481 43.6704C168.213 43.2387 168.942 42.8081 169.666 42.3808C171.113 41.5251 172.544 40.6795 173.957 39.845C175.37 39.0083 176.764 38.1827 178.141 37.3683C179.513 36.545 180.883 35.7752 182.197 34.8973C184.82 33.1803 187.248 31.44 189.696 30.0142C192.143 28.574 194.595 27.4896 197.115 26.8626C199.623 26.2223 202.125 25.9768 204.499 26.065C206.879 26.1498 209.129 26.5179 210.877 27.4874C211.74 27.9704 212.459 28.6007 212.948 29.3482C213.438 30.0923 213.709 30.9592 213.776 31.8081C213.931 33.524 213.161 35.0891 212.039 36.0675C210.921 37.0615 209.495 37.4554 208.32 37.2166C207.121 37.0069 206.256 36.2159 205.98 35.3469C205.68 34.4633 205.838 33.6043 206.138 33.0141C206.433 32.4095 206.822 32.0335 207.092 31.8026C207.368 31.5716 207.532 31.4645 207.51 31.4143C207.495 31.373 207.29 31.3853 206.931 31.5527C206.581 31.7211 206.069 32.0614 205.63 32.7229C205.19 33.3677 204.859 34.4053 205.148 35.59C205.29 36.178 205.621 36.7848 206.13 37.2757C206.635 37.7733 207.315 38.128 208.07 38.3244C209.593 38.7338 211.468 38.3166 212.926 37.1363C213.663 36.5539 214.302 35.7775 214.757 34.8493C215.216 33.9189 215.442 32.8312 215.399 31.7211C215.354 30.6122 215.049 29.4631 214.422 28.4267C213.797 27.3892 212.864 26.5268 211.806 25.8898C209.666 24.6202 207.131 24.1774 204.599 24.0123C202.035 23.8494 199.321 24.0479 196.581 24.6827C193.839 25.2985 191.081 26.4554 188.494 27.9225C185.889 29.3795 183.392 31.1109 180.808 32.7486C179.534 33.5741 178.151 34.3283 176.781 35.126C175.406 35.9181 174.012 36.7202 172.602 37.5323C171.192 38.3456 169.764 39.1689 168.32 40.0023C167.598 40.4195 166.872 40.839 166.142 41.2607C165.444 41.6389 164.77 41.9602 164.015 42.2179C161.034 43.2733 157.628 43.5477 154.164 43.541C152.414 43.5366 150.676 43.4674 148.94 43.2878C147.201 43.0992 145.461 42.7969 143.737 42.3864C140.286 41.5731 136.903 40.2633 133.811 38.4203C132.265 37.5 130.817 36.448 129.515 35.2598C128.213 34.1096 127.104 32.7798 126.196 31.3396C124.386 28.487 123.399 25.1011 124.15 22.1202L124.286 21.5646L124.489 21.0324C124.603 20.6687 124.79 20.3363 124.968 20.0016C125.307 19.3233 125.745 18.7901 126.282 18.2802C127.353 17.2818 128.754 16.5801 130.221 16.1784C131.699 15.7701 133.222 15.6742 134.682 15.8872C136.152 16.1115 137.575 16.6481 138.908 17.3632C141.583 18.8079 143.887 20.9086 145.956 23.0997C148.021 25.322 149.926 27.6246 151.721 29.8859C155.31 34.4175 158.541 38.7963 161.785 42.5927C163.405 44.4937 165.02 46.2464 166.627 47.8339C167.425 48.626 168.24 49.3801 169.02 50.0818C169.794 50.7824 170.557 51.4797 171.342 52.1189C172.9 53.393 174.602 54.4695 176.436 54.8399C178.265 55.2092 180.04 54.8555 181.332 54.0099C181.98 53.5937 182.501 53.0571 182.859 52.4525C183.214 51.8534 183.388 51.2231 183.444 50.6385C183.555 49.4616 183.191 48.4753 182.73 47.8405C182.26 47.198 181.726 46.8834 181.366 46.7394C180.996 46.5989 180.796 46.5844 180.783 46.6268Z" fill="#654628"/>
<path d="M183.173 49.5763C183.173 47.9118 181.824 46.5631 180.16 46.5631C178.495 46.5631 177.146 47.9118 177.146 49.5763C177.146 51.2397 178.495 52.5896 180.16 52.5896C181.824 52.5896 183.173 51.2408 183.173 49.5763Z" fill="#654628"/>
<path d="M158.262 58.057C159.926 58.057 161.276 59.406 161.276 61.0702C161.276 62.7344 159.926 64.0835 158.262 64.0835C156.598 64.0835 155.249 62.7344 155.249 61.0702C155.249 59.406 156.598 58.057 158.262 58.057Z" fill="#654628"/>
<path d="M171.711 18.9247C171.711 17.2602 170.362 15.9115 168.698 15.9115C167.034 15.9115 165.685 17.2602 165.685 18.9247C165.685 20.5892 167.033 21.938 168.698 21.938C170.362 21.938 171.711 20.5892 171.711 18.9247Z" fill="#654628"/>
<path d="M189.232 11.5597C189.232 9.89634 187.883 8.54646 186.218 8.54646C184.554 8.54646 183.205 9.89522 183.205 11.5597C183.205 13.2242 184.554 14.573 186.218 14.573C187.883 14.5719 189.232 13.2231 189.232 11.5597Z" fill="#654628"/>
<path d="M211.204 34.2834C211.204 32.6189 209.855 31.2701 208.191 31.2701C206.528 31.2701 205.178 32.6189 205.178 34.2834C205.178 35.9468 206.526 37.2966 208.191 37.2966C209.855 37.2955 211.204 35.9468 211.204 34.2834Z" fill="#654628"/>
<path d="M171.61 18.5822C171.503 18.5621 171.378 18.7875 171.157 19.1657C170.942 19.5417 170.596 20.0816 170.003 20.5111C169.412 20.9317 168.545 21.1805 167.565 20.9295C166.574 20.6818 165.555 20.0169 164.98 18.8846C164.69 18.3334 164.499 17.6864 164.498 17.0405C164.478 16.3923 164.667 15.7742 165.034 15.1606C165.401 14.5604 165.951 14.0172 166.619 13.61C166.951 13.4058 167.312 13.2362 167.69 13.1102C168.086 13.0086 168.498 12.8692 168.93 12.8335C170.638 12.5702 172.554 12.983 174.217 13.9547C175.886 14.9119 177.297 16.4827 177.891 18.3524C178.521 20.2434 178.37 22.3786 177.848 24.3555C177.324 26.3446 176.46 28.2758 175.569 30.044C173.805 33.5258 171.406 36.2278 169.175 38.2404C166.939 40.2641 164.87 41.6385 163.442 42.5957C162.001 43.5373 161.189 44.0773 161.275 44.2714C161.351 44.4443 162.321 44.2547 163.97 43.5987C165.604 42.9237 167.93 41.7713 170.49 39.8245C173.035 37.889 175.833 35.1044 177.938 31.3013C178.957 29.4371 179.937 27.4313 180.6 25.0996C181.246 22.7926 181.524 20.0972 180.657 17.4499C179.794 14.7746 177.845 12.7041 175.63 11.4769C173.415 10.2363 170.854 9.74435 168.501 10.1839C167.908 10.2653 167.353 10.4606 166.793 10.6424C166.228 10.8589 165.701 11.1366 165.22 11.4646C164.256 12.1206 163.46 12.9808 162.93 13.9759C162.404 14.9531 162.142 16.1201 162.254 17.1688C162.34 18.2197 162.709 19.159 163.21 19.9377C163.713 20.7197 164.365 21.3489 165.091 21.7829C165.828 22.2236 166.559 22.4434 167.296 22.5348C168.026 22.6196 168.737 22.5282 169.334 22.3006C169.934 22.0752 170.412 21.7216 170.761 21.3534C171.45 20.5903 171.655 19.8328 171.714 19.3487C171.772 18.8556 171.7 18.5978 171.61 18.5822Z" fill="#654628"/>
<path d="M185.337 14.3428C185.492 14.1777 184.924 13.6132 184.549 12.5132C184.375 11.9666 184.326 11.3073 184.608 10.6457C184.889 9.98526 185.485 9.30251 186.347 8.9299C186.767 8.7012 187.254 8.61752 187.745 8.55393C188.247 8.52716 188.771 8.59186 189.296 8.74581C190.332 9.08719 191.387 9.81904 192.03 10.8733C192.356 11.3943 192.583 11.9699 192.685 12.5835C192.787 13.215 192.761 13.8732 192.616 14.5548C192.329 15.9259 191.55 17.3583 190.607 18.8376C189.641 20.366 188.719 21.7717 187.713 23.0903C186.712 24.4034 185.684 25.6239 184.644 26.7328C183.603 27.8607 182.579 28.8112 181.536 29.8041C180.522 30.7814 179.606 31.7017 178.77 32.5351C175.474 35.8975 173.218 37.6982 173.425 38.0485C173.529 38.2136 174.264 37.9904 175.457 37.3356C176.652 36.6874 178.273 35.5684 180.141 34.0702C181.077 33.3238 182.077 32.4871 183.143 31.6047C184.191 30.749 185.418 29.7394 186.561 28.6104C187.722 27.4825 188.865 26.2185 189.965 24.8396C191.065 23.4674 192.101 21.9234 193.069 20.3917C194.056 18.8254 195.031 17.1062 195.414 15.1081C195.604 14.1186 195.618 13.0699 195.422 12.0848C195.22 11.083 194.803 10.1537 194.256 9.3728C193.164 7.79533 191.55 6.80577 189.911 6.40861C189.081 6.229 188.245 6.20001 187.457 6.32496C186.68 6.48561 185.942 6.72879 185.348 7.13041C184.103 7.86671 183.313 9.04146 183.051 10.176C182.775 11.3407 183.117 12.3838 183.532 13.0097C183.95 13.6556 184.411 14.0037 184.734 14.1967C185.066 14.3852 185.276 14.4176 185.337 14.3428Z" fill="#654628"/>
<path d="M226.996 30.9429C227.085 30.8559 226.699 30.2591 225.843 29.3141C224.992 28.3659 223.651 27.0863 221.802 25.7275C219.944 24.3954 217.579 22.9518 214.695 21.902C211.837 20.8165 208.432 20.1673 204.875 20.3034C203.098 20.3669 201.374 20.6191 199.747 20.9917C198.12 21.3766 196.596 21.9054 195.183 22.4866C192.37 23.6915 190.031 25.1708 188.249 26.6188C186.463 28.0647 185.184 29.4157 184.404 30.4286C183.616 31.4349 183.28 32.063 183.376 32.1411C183.621 32.3542 185.433 30.2155 189.066 27.721C190.873 26.4727 193.166 25.1931 195.852 24.1444C197.202 23.6413 198.642 23.1794 200.167 22.8447C201.695 22.5223 203.296 22.3003 204.944 22.2412C208.243 22.1173 211.379 22.6573 214.101 23.5877C216.839 24.4813 219.154 25.7286 221.036 26.8643C222.908 28.0267 224.345 29.11 225.333 29.8697C226.326 30.6272 226.893 31.0422 226.996 30.9429Z" fill="#654628"/>
<path d="M189.117 36.0282C188.988 35.8363 186.851 37.1706 182.829 39.22C178.816 41.2671 172.817 43.9278 165.037 45.9192C161.152 46.921 156.816 47.6908 152.129 48.1371C147.443 48.5766 142.397 48.7004 137.278 47.7868C132.208 46.8708 126.955 44.8505 123.19 40.8599C121.335 38.8875 119.829 36.4878 119.277 33.8528C118.69 31.2545 119.092 28.3796 120.534 26.1026C121.971 23.8 124.34 22.0775 126.86 21.5822C127.489 21.4773 128.123 21.3959 128.752 21.4505C129.056 21.4494 129.4 21.5052 129.733 21.5498C130.069 21.5822 130.4 21.6658 130.732 21.7294C132.056 22.0161 133.347 22.4847 134.58 23.076C137.049 24.2641 139.286 25.913 141.307 27.7214C143.306 29.532 145.182 31.5624 146.962 33.5181C148.734 35.4961 150.408 37.4774 151.967 39.4531C153.549 41.4233 154.933 43.3946 156.402 45.3469C159.327 49.1522 162.039 52.5872 163.541 56.1862C163.897 57.0731 164.247 57.9946 164.447 58.8369C164.654 59.6925 164.732 60.546 164.676 61.3403C164.562 62.9512 163.783 64.1851 162.509 64.821C161.273 65.5037 159.875 65.6354 158.754 65.2706C158.19 65.091 157.691 64.7975 157.274 64.435C156.869 64.0746 156.563 63.6753 156.362 63.2145C155.965 62.3053 155.922 61.3448 156.121 60.5951C156.307 59.8353 156.709 59.2775 157.135 58.9507C157.563 58.6238 157.974 58.4631 158.256 58.3772C158.541 58.2969 158.696 58.2288 158.695 58.1798C158.693 58.1296 158.535 58.0961 158.21 58.0838C157.891 58.0782 157.393 58.1496 156.81 58.4631C156.23 58.7755 155.623 59.4192 155.295 60.3374C154.955 61.2466 154.889 62.4191 155.31 63.6351C155.516 64.2398 155.906 64.8489 156.412 65.3565C156.913 65.8574 157.55 66.2925 158.288 66.5781C159.768 67.1593 161.616 67.0712 163.247 66.2702C164.054 65.9031 164.901 65.2628 165.477 64.4138C166.078 63.5704 166.39 62.5452 166.518 61.5244C166.633 60.4958 166.569 59.4515 166.359 58.4196C166.146 57.372 165.814 56.4227 165.45 55.4142C163.927 51.418 161.136 47.722 158.341 43.9078C156.978 42.0135 155.56 39.9105 153.989 37.8823C152.43 35.8352 150.755 33.7858 148.969 31.7387C147.16 29.6994 145.323 27.6522 143.174 25.662C141.029 23.7052 138.617 21.88 135.821 20.5089C134.424 19.8284 132.93 19.2695 131.35 18.9192C130.953 18.8389 130.559 18.7418 130.152 18.6972C129.747 18.6414 129.351 18.5756 128.904 18.5667C128.035 18.4964 127.163 18.5923 126.308 18.7385C122.881 19.4168 119.917 21.6167 118.066 24.5575C116.184 27.5362 115.703 31.2032 116.448 34.4708C116.812 36.1052 117.431 37.6548 118.25 39.047C119.071 40.4382 120.051 41.6966 121.128 42.8301C123.292 45.0702 125.895 46.824 128.594 48.0054C131.288 49.2236 134.083 49.9767 136.821 50.4296C142.313 51.331 147.58 51.0912 152.377 50.5378C157.192 49.9733 161.625 49.063 165.573 47.9061C173.484 45.6057 179.475 42.5936 183.376 40.2118C187.29 37.8232 189.214 36.1666 189.117 36.0282Z" fill="#654628"/>
<path d="M52.496 44.1063C52.4815 44.0639 52.2818 44.0784 51.9114 44.21C51.5511 44.3539 51.0167 44.6685 50.547 45.3111C50.0863 45.9459 49.7237 46.9321 49.833 48.1091C49.8899 48.6926 50.064 49.324 50.4176 49.9231C50.7757 50.5277 51.2967 51.0643 51.9449 51.4805C53.2368 52.3261 55.0106 52.6809 56.8391 52.3105C58.6731 51.9401 60.3755 50.8636 61.9329 49.5895C62.7183 48.9503 63.4814 48.2519 64.2556 47.5524C65.0354 46.8507 65.8498 46.0965 66.6486 45.3045C68.2551 43.7181 69.8716 41.9643 71.4904 40.0633C74.7346 36.2669 77.9654 31.8892 81.5543 27.3565C83.3493 25.0952 85.2548 22.7925 87.3209 20.5702C89.3892 18.3803 91.6918 16.2785 94.3682 14.8338C95.7025 14.1187 97.126 13.5832 98.5941 13.3578C100.054 13.1459 101.578 13.2407 103.055 13.649C104.522 14.0506 105.925 14.7535 106.995 15.7508C107.531 16.2607 107.971 16.7928 108.309 17.4722C108.486 17.808 108.674 18.1393 108.787 18.503L108.99 19.0352L109.125 19.5896C109.876 22.5705 108.889 25.9564 107.079 28.8102C106.171 30.2504 105.062 31.5802 103.761 32.7304C102.46 33.9186 101.011 34.9705 99.4643 35.8909C96.3729 37.7339 92.9893 39.0437 89.5387 39.8569C87.814 40.2675 86.0747 40.5709 84.3355 40.7583C82.5996 40.938 80.8615 41.0071 79.1111 41.0116C75.6471 41.0194 72.2412 40.7439 69.2603 39.6885C68.505 39.4308 67.8323 39.1095 67.1328 38.7313C66.4032 38.3096 65.6769 37.8901 64.9551 37.4729C63.5115 36.6395 62.0835 35.8162 60.6734 35.0029C59.2622 34.1907 57.8688 33.3875 56.4943 32.5966C55.1244 31.7989 53.741 31.0458 52.467 30.2192C49.8832 28.5815 47.3876 26.85 44.7816 25.3931C42.1945 23.926 39.4366 22.7691 36.6945 22.1533C33.9556 21.5185 31.2403 21.32 28.6766 21.4828C26.1442 21.6468 23.6095 22.0908 21.4698 23.3604C20.411 23.9974 19.4784 24.8598 18.8537 25.8973C18.2267 26.9337 17.921 28.0828 17.8764 29.1917C17.8329 30.3017 18.0593 31.3883 18.5178 32.3199C18.973 33.2481 19.6123 34.0245 20.3497 34.6069C21.8078 35.7883 23.6809 36.2044 25.2037 35.795C25.9601 35.5986 26.6395 35.2439 27.1438 34.7463C27.6536 34.2566 27.9838 33.6497 28.1266 33.0606C28.4155 31.8759 28.0842 30.8383 27.6446 30.1935C27.2051 29.532 26.693 29.1917 26.3427 29.0233C25.9857 28.857 25.7805 28.8436 25.7637 28.8849C25.7414 28.9362 25.9065 29.0422 26.1821 29.2742C26.4521 29.5063 26.8414 29.8811 27.1359 30.4858C27.436 31.0759 27.5944 31.935 27.2943 32.8185C27.0177 33.6887 26.1531 34.4786 24.9538 34.6883C23.7791 34.9271 22.3533 34.5343 21.2366 33.5392C20.1143 32.5608 19.3445 30.9956 19.4996 29.2798C19.5676 28.432 19.8387 27.564 20.3274 26.8199C20.816 26.0725 21.5356 25.4421 22.398 24.9591C24.1461 23.9907 26.3963 23.6215 28.7759 23.5367C31.1499 23.4497 33.6522 23.694 36.1601 24.3343C38.6792 24.9624 41.1324 26.0457 43.5789 27.4859C46.0288 28.9117 48.4552 30.652 51.078 32.369C52.3922 33.2469 53.7622 34.0167 55.1344 34.84C56.5111 35.6544 57.9056 36.4811 59.318 37.3167C60.7314 38.1523 62.1627 38.9979 63.6097 39.8525C64.3337 40.2798 65.0622 40.7093 65.7941 41.141C66.5783 41.5772 67.444 41.9967 68.3086 42.2979C71.7972 43.5563 75.4765 43.8396 79.1055 43.8586C80.9128 43.8642 82.7659 43.8006 84.6312 43.6143C86.4909 43.4213 88.3528 43.1034 90.2036 42.6683C93.9052 41.8048 97.5644 40.4036 100.956 38.381C102.652 37.3714 104.254 36.2078 105.704 34.8813C107.191 33.5593 108.478 32.0186 109.524 30.3475C110.57 28.6752 111.391 26.8523 111.859 24.9089C112.336 22.9744 112.376 20.8849 111.891 18.9102L111.701 18.1728L111.431 17.4622C111.269 16.9802 111.028 16.5385 110.788 16.0967C110.33 15.202 109.642 14.3518 108.903 13.6747C107.4 12.2991 105.599 11.4457 103.772 10.9571C101.945 10.4673 100.019 10.3591 98.1668 10.6492C96.3227 10.9493 94.6148 11.6264 93.0808 12.4698C90.0084 14.1812 87.5786 16.4961 85.4366 18.8243C83.3169 21.1716 81.4249 23.54 79.6455 25.8649C76.0978 30.5159 72.9853 34.9315 69.9017 38.7413C68.3633 40.6468 66.8349 42.405 65.3222 44.0003C64.5647 44.8013 63.815 45.5443 63.0597 46.2739C62.3033 47.0091 61.5905 47.7108 60.8765 48.3411C59.4574 49.6018 57.9993 50.5813 56.5245 50.9517C55.0664 51.3254 53.5937 51.1157 52.5294 50.5065C51.4306 49.9108 50.8516 48.9336 50.6854 47.9886C50.5124 47.0448 50.7222 46.197 51.0379 45.6168C51.3592 45.03 51.7641 44.6775 52.0497 44.4633C52.3498 44.2681 52.5149 44.1576 52.496 44.1063Z" fill="#654628"/>
<path d="M53.1177 44.0417C54.7819 44.0417 56.131 45.3908 56.131 47.055C56.131 48.7192 54.7819 50.0682 53.1177 50.0682C51.4536 50.0682 50.1045 48.7192 50.1045 47.055C50.1045 45.3908 51.4536 44.0417 53.1177 44.0417Z" fill="#654628"/>
<path d="M75.0162 55.5356C76.6804 55.5356 78.0294 56.8847 78.0294 58.5488C78.0294 60.213 76.6804 61.5621 75.0162 61.5621C73.352 61.5621 72.0029 60.213 72.0029 58.5488C72.0029 56.8847 73.352 55.5356 75.0162 55.5356Z" fill="#654628"/>
<path d="M64.5787 13.3913C66.2429 13.3913 67.592 14.7404 67.592 16.4046C67.592 18.0688 66.2429 19.4178 64.5787 19.4178C62.9145 19.4178 61.5654 18.0688 61.5654 16.4046C61.5654 14.7404 62.9145 13.3913 64.5787 13.3913Z" fill="#654628"/>
<path d="M47.0591 6.0251C48.7233 6.0251 50.0724 7.37421 50.0724 9.03838C50.0724 10.7026 48.7233 12.0516 47.0591 12.0516C45.395 12.0516 44.0459 10.7026 44.0459 9.03838C44.0459 7.37421 45.395 6.0251 47.0591 6.0251Z" fill="#654628"/>
<path d="M22.0742 31.762C22.0742 30.0975 23.423 28.7488 25.0875 28.7488C26.752 28.7488 28.1008 30.0975 28.1008 31.762C28.1008 33.4265 26.752 34.7753 25.0875 34.7753C23.423 34.7742 22.0742 33.4254 22.0742 31.762Z" fill="#654628"/>
<path d="M61.6684 16.0606C61.578 16.0762 61.5066 16.335 61.5635 16.827C61.6215 17.3112 61.8268 18.0687 62.5162 18.8317C62.8654 19.1999 63.3429 19.5535 63.9431 19.7789C64.5399 20.0065 65.2506 20.0979 65.9813 20.0132C66.7165 19.9217 67.4495 19.7019 68.1858 19.2613C68.912 18.8284 69.5646 18.1992 70.0667 17.416C70.5676 16.6362 70.9369 15.6969 71.0228 14.646C71.1354 13.5973 70.8733 12.4304 70.3467 11.4531C69.8168 10.4591 69.0213 9.59785 68.0574 8.94187C67.5744 8.61388 67.0478 8.33609 66.4844 8.11967C65.9233 7.93782 65.3688 7.74146 64.7753 7.66114C62.4214 7.22159 59.8611 7.71245 57.6455 8.95413C55.4321 10.1802 53.482 12.2519 52.6185 14.9271C51.7517 17.5745 52.0306 20.2698 52.6754 22.5768C53.3403 24.9085 54.3187 26.9143 55.3395 28.7785C57.4435 32.5816 60.2415 35.3662 62.7873 37.3018C65.3465 39.2485 67.6726 40.4009 69.3069 41.0759C70.9558 41.7319 71.9264 41.9226 72.0023 41.7486C72.0882 41.5545 71.276 41.0145 69.8346 40.073C68.4067 39.1147 66.3383 37.7413 64.1015 35.7176C61.8714 33.7039 59.4717 31.0019 57.708 27.5212C56.8166 25.7519 55.952 23.8208 55.4288 21.8327C54.9067 19.8559 54.756 17.7206 55.3863 15.8296C55.9799 13.9599 57.3922 12.3902 59.0601 11.4319C60.7234 10.4613 62.6378 10.0486 64.3469 10.3118C64.7787 10.3475 65.1903 10.4881 65.5875 10.5885C65.9646 10.7146 66.326 10.8852 66.6585 11.0883C67.3256 11.4955 67.8756 12.0388 68.2427 12.639C68.6097 13.2526 68.7993 13.8706 68.7793 14.5188C68.7781 15.1647 68.5885 15.8118 68.2984 16.3629C67.7228 17.4952 66.7042 18.1601 65.7136 18.4078C64.733 18.6588 63.8661 18.41 63.2748 17.9895C62.6813 17.5599 62.3366 17.02 62.1213 16.644C61.9004 16.2658 61.7755 16.0405 61.6684 16.0606Z" fill="#654628"/>
<path d="M47.9417 11.8217C48.002 11.8964 48.2129 11.8652 48.5453 11.6766C48.8699 11.4836 49.3307 11.1356 49.7491 10.4896C50.1641 9.86489 50.5054 8.82067 50.2299 7.65597C49.9677 6.52028 49.1778 5.34665 47.9328 4.61034C47.3393 4.20872 46.6008 3.96442 45.8232 3.80489C45.0356 3.67994 44.1989 3.70896 43.37 3.88857C41.7311 4.28573 40.1169 5.27414 39.0247 6.85273C38.4769 7.63254 38.0597 8.56184 37.8589 9.56478C37.6625 10.5499 37.677 11.5974 37.8656 12.5881C38.2482 14.5861 39.2233 16.3042 40.2106 17.8716C41.1789 19.4045 42.2142 20.9474 43.3142 22.3196C44.4153 23.6985 45.5577 24.9625 46.7191 26.0903C47.8603 27.2193 49.0886 28.2289 50.1362 29.0846C51.2027 29.9671 52.2023 30.8038 53.1383 31.5501C55.0069 33.0484 56.6279 34.1673 57.8227 34.8155C59.0153 35.4704 59.7505 35.6924 59.8542 35.5284C60.0606 35.177 57.8049 33.3764 54.5094 30.015C53.6738 29.1817 52.7579 28.2613 51.7438 27.284C50.7007 26.2922 49.6765 25.3417 48.6357 24.2127C47.5959 23.1038 46.5673 21.8833 45.5677 20.5703C44.5615 19.2516 43.64 17.8448 42.6738 16.3176C41.7312 14.8372 40.9513 13.4058 40.6646 12.0347C40.5185 11.352 40.4939 10.6949 40.5955 10.0624C40.6992 9.44877 40.9246 8.87309 41.2503 8.3521C41.894 7.29785 42.9472 6.56492 43.9847 6.22466C44.5101 6.0707 45.0345 6.006 45.5354 6.03277C46.0263 6.09748 46.5138 6.18112 46.9332 6.40871C47.7956 6.78243 48.3913 7.4641 48.6725 8.12454C48.9558 8.78721 48.9056 9.4454 48.7327 9.99205C48.3545 11.092 47.7867 11.6566 47.9417 11.8217Z" fill="#654628"/>
<path d="M6.28211 28.4219C6.38363 28.5223 6.95147 28.1062 7.94548 27.3509C8.93391 26.5912 10.3708 25.5079 12.2428 24.3455C14.1248 23.2098 16.4397 21.9614 19.1774 21.0689C21.8995 20.1385 25.0355 19.5986 28.3344 19.7224C29.9821 19.7815 31.5842 20.0024 33.1103 20.3259C34.6353 20.6606 36.0767 21.1225 37.4255 21.6256C40.1119 22.6732 42.4033 23.9528 44.2117 25.2023C47.8453 27.6957 49.657 29.8343 49.9014 29.6223C49.9973 29.5442 49.6615 28.9161 48.8739 27.9099C48.0941 26.898 46.8144 25.5459 45.0284 24.1C43.2467 22.652 40.9073 21.1727 38.0948 19.9678C36.6814 19.3855 35.1586 18.8567 33.5309 18.4729C31.9032 18.1003 30.1796 17.8482 28.4024 17.7846C24.8459 17.6496 21.441 18.2977 18.5828 19.3832C15.699 20.433 13.3339 21.8766 11.4753 23.2087C9.6267 24.5675 8.28462 25.8471 7.43452 26.7954C6.57885 27.7381 6.19286 28.3349 6.28211 28.4219Z" fill="#654628"/>
<path d="M44.1608 33.507C44.0626 33.6453 45.9882 35.302 49.9006 37.6905C53.8019 40.0735 59.7927 43.0856 67.7035 45.3849C71.6528 46.5407 76.0862 47.4521 80.9 48.0166C85.6972 48.57 90.964 48.8087 96.4561 47.9084C99.1938 47.4566 101.99 46.7024 104.683 45.4842C107.381 44.3028 109.985 42.549 112.149 40.3078C113.226 39.1743 114.206 37.9159 115.027 36.5247C115.845 35.1336 116.465 33.584 116.831 31.9485C117.575 28.6809 117.094 25.0139 115.212 22.0352C113.362 19.0944 110.397 16.8956 106.971 16.2162C106.115 16.07 105.243 15.9741 104.375 16.0444C103.928 16.0533 103.532 16.1191 103.127 16.1749C102.72 16.2195 102.326 16.3166 101.929 16.3969C100.35 16.7472 98.8547 17.3061 97.4579 17.9866C94.6622 19.3566 92.2503 21.1817 90.105 23.1396C87.9563 25.1299 86.1189 27.177 84.3105 29.2164C82.5255 31.2635 80.8487 33.314 79.2902 35.36C77.7195 37.3882 76.3026 39.4911 74.9382 41.3855C72.1436 45.1997 69.3513 48.8968 67.8296 52.8918C67.4637 53.9015 67.1334 54.8509 66.9204 55.8973C66.7117 56.9281 66.6459 57.9734 66.7608 59.002C66.8891 60.0239 67.2015 61.0481 67.8017 61.8915C68.3784 62.7404 69.2252 63.3797 70.0318 63.7478C71.6639 64.5488 73.5125 64.637 74.9907 64.0557C75.7303 63.7701 76.3662 63.3351 76.8671 62.8342C77.3736 62.3265 77.763 61.7163 77.9694 61.1128C78.3899 59.8968 78.3241 58.7243 77.9839 57.815C77.6559 56.8969 77.049 56.2532 76.4689 55.9408C75.8865 55.6273 75.3878 55.5559 75.0688 55.5615C74.7441 55.5749 74.5868 55.6072 74.5846 55.6574C74.5835 55.7077 74.7374 55.7746 75.023 55.8549C75.3053 55.9408 75.7158 56.1015 76.1442 56.4283C76.5704 56.7552 76.9731 57.3141 77.1594 58.0728C77.358 58.8213 77.3156 59.7819 76.9184 60.6922C76.7176 61.1518 76.412 61.5523 76.0059 61.9127C75.5898 62.2752 75.0911 62.5675 74.5266 62.7483C73.4043 63.1131 72.0064 62.9814 70.7714 62.2987C69.4974 61.6628 68.7187 60.4289 68.6038 58.818C68.5469 58.0226 68.6261 57.1702 68.8336 56.3145C69.0333 55.4722 69.3836 54.5507 69.7395 53.6638C71.2411 50.0649 73.9532 46.6299 76.8783 42.8246C78.3487 40.8734 79.7309 38.901 81.3129 36.9308C82.8725 34.9551 84.5459 32.9737 86.3186 30.9958C88.0969 29.0401 89.9744 27.0097 91.9736 25.1991C93.994 23.3907 96.2308 21.7418 98.7008 20.5537C99.9335 19.9624 101.224 19.4927 102.548 19.206C102.881 19.1424 103.211 19.0588 103.547 19.0264C103.882 18.9829 104.224 18.926 104.529 18.9271C105.156 18.8735 105.792 18.9539 106.421 19.0587C108.94 19.5541 111.309 21.2766 112.746 23.5792C114.189 25.8562 114.59 28.73 114.004 31.3293C113.451 33.9655 111.945 36.3641 110.09 38.3365C106.325 42.327 101.073 44.3474 96.0021 45.2633C90.8837 46.177 85.8377 46.0532 81.1511 45.6136C76.4644 45.1674 72.128 44.3987 68.2435 43.3958C60.4632 41.4044 54.4646 38.7437 50.4517 36.6965C46.4277 34.6494 44.2902 33.3151 44.1608 33.507Z" fill="#654628"/>
<path d="M116.067 103.322C116.223 103.332 116.559 101.715 116.296 98.7633C116.057 95.8193 114.933 91.5877 112.496 86.9044C111.285 84.5639 109.772 82.1117 108.053 79.5693C107.204 78.3164 106.326 77.0212 105.421 75.688C104.974 75.0254 104.561 74.3259 104.119 73.632C103.68 72.937 103.237 72.2319 102.826 71.4956C101.09 68.6028 99.494 65.4412 98.0124 62.101C96.522 58.762 95.2569 55.1887 94.3008 51.4548C94.1781 50.9884 94.0565 50.5232 93.936 50.0603C93.8311 49.5939 93.7475 49.1243 93.6515 48.659C93.5578 48.1927 93.4652 47.7286 93.3726 47.2657L93.2343 46.5729L93.1406 45.8767C93.0167 44.9496 92.894 44.0293 92.7724 43.1167C92.7111 42.1997 92.6508 41.2893 92.5906 40.3879C92.469 36.7789 92.701 33.2915 93.3469 30.0406C93.4875 29.2251 93.7363 28.4431 93.9204 27.6577C94.0186 27.2661 94.1167 26.8779 94.2149 26.4908C94.3153 26.1059 94.4547 25.7344 94.5719 25.3595C95.0438 23.8601 95.6328 22.4489 96.2252 21.0957C97.4524 18.4048 98.8882 16.0308 100.345 13.9636C103.269 9.82242 106.266 6.93077 108.359 4.97845C110.469 3.03506 111.701 2.00201 111.578 1.82909C111.478 1.68517 110.031 2.41591 107.662 4.13395C105.315 5.86314 102.015 8.60641 98.7498 12.7766C97.1244 14.8583 95.5112 17.2915 94.1201 20.0939C93.4451 21.5029 92.7769 22.9811 92.2325 24.5596C92.0975 24.9546 91.9402 25.345 91.823 25.7522C91.7092 26.1594 91.5932 26.5711 91.4783 26.9839C91.2619 27.815 90.9819 28.6439 90.8134 29.5085C90.0537 32.9568 89.7469 36.6673 89.8406 40.4939C89.9287 44.3271 90.5948 48.2485 91.5798 52.1576C92.5817 56.0667 93.9204 59.7783 95.4967 63.22C97.0653 66.6639 98.7644 69.8969 100.608 72.8332C101.047 73.5807 101.518 74.2958 101.985 74.9986C102.455 75.6992 102.897 76.4054 103.373 77.0736C104.326 78.4079 105.253 79.7143 106.146 80.9136C107.916 83.3523 109.476 85.6683 110.754 87.8638C113.314 92.2504 114.657 96.155 115.215 98.9351C115.794 101.709 115.837 103.319 116.067 103.322Z" fill="#654628"/>
<path d="M116.393 103.322C116.238 103.332 115.902 101.715 116.165 98.7633C116.404 95.8193 117.528 91.5877 119.965 86.9044C121.176 84.5639 122.689 82.1117 124.408 79.5693C125.257 78.3164 126.135 77.0212 127.04 75.688C127.487 75.0254 127.9 74.3259 128.342 73.632C128.781 72.937 129.224 72.2319 129.635 71.4956C131.371 68.6028 132.967 65.4412 134.449 62.101C135.939 58.762 137.204 55.1887 138.16 51.4548C138.283 50.9884 138.404 50.5232 138.525 50.0603C138.63 49.5939 138.714 49.1243 138.809 48.659C138.903 48.1927 138.996 47.7286 139.088 47.2657L139.227 46.5729L139.32 45.8767C139.444 44.9496 139.567 44.0293 139.689 43.1167C139.75 42.1997 139.81 41.2893 139.87 40.3879C139.992 36.7789 139.76 33.2915 139.114 30.0406C138.973 29.2251 138.725 28.4431 138.541 27.6577C138.442 27.2661 138.344 26.8779 138.246 26.4908C138.146 26.1059 138.006 25.7344 137.889 25.3595C137.417 23.8601 136.828 22.4489 136.236 21.0957C135.009 18.4048 133.573 16.0308 132.116 13.9636C129.192 9.82242 126.195 6.93077 124.102 4.97845C121.992 3.03506 120.76 2.00201 120.883 1.82909C120.983 1.68517 122.43 2.41591 124.799 4.13395C127.146 5.86314 130.446 8.60641 133.711 12.7766C135.337 14.8583 136.95 17.2915 138.341 20.0939C139.016 21.5029 139.684 22.9811 140.229 24.5596C140.364 24.9546 140.521 25.345 140.638 25.7522C140.752 26.1594 140.868 26.5711 140.983 26.9839C141.199 27.815 141.479 28.6439 141.648 29.5085C142.407 32.9568 142.714 36.6673 142.62 40.4939C142.532 44.3271 141.866 48.2485 140.881 52.1576C139.879 56.0667 138.541 59.7783 136.964 63.22C135.396 66.6639 133.697 69.8969 131.853 72.8332C131.414 73.5807 130.943 74.2958 130.476 74.9986C130.006 75.6992 129.564 76.4054 129.088 77.0736C128.135 78.4079 127.208 79.7143 126.315 80.9136C124.545 83.3523 122.985 85.6683 121.707 87.8638C119.147 92.2504 117.804 96.155 117.246 98.9351C116.667 101.709 116.624 103.319 116.393 103.322Z" fill="#654628"/>
<path d="M116.157 86.3022C117.192 86.3134 118.064 79.825 118.106 71.8082C118.147 63.7926 116.835 29.2053 116.449 29.2008C115.891 29.1942 114.397 63.7513 114.356 71.767C114.315 79.7826 115.121 86.2911 116.157 86.3022Z" fill="#654628"/>
<path d="M134.818 54.3184C134.872 53.7829 134.356 53.2452 133.562 52.7298C132.762 52.2132 131.687 51.7012 130.483 51.2248C129.883 50.976 128.753 50.5989 127.455 49.9731C126.155 49.3539 124.693 48.4838 123.397 47.4819C122.104 46.479 120.986 45.3567 120.201 44.4754C119.412 43.5963 118.949 42.9704 118.846 43.024C118.732 43.0808 118.867 43.8729 119.343 45.0254C119.815 46.1756 120.643 47.6827 121.773 49.1219C122.901 50.5588 124.33 51.9064 125.701 52.9016C127.068 53.9056 128.363 54.5538 129.089 54.8483C130.554 55.4251 132.008 55.5812 133.056 55.4284C134.115 55.2767 134.764 54.8472 134.818 54.3184Z" fill="#654628"/>
<path d="M131.587 60.6569C131.734 60.137 131.412 59.5335 130.844 58.9545C130.274 58.3666 129.465 57.7775 128.516 57.2599C128.049 56.9843 127.136 56.5894 126.099 55.9803C125.057 55.3834 123.879 54.5958 122.825 53.7267C120.687 52.0143 119.18 49.9158 118.991 50.0129C118.743 50.1155 119.386 52.7327 121.119 55.2808C121.964 56.5526 123.041 57.7842 124.086 58.7369C125.121 59.7019 126.127 60.3602 126.691 60.6859C127.84 61.3107 129.023 61.5829 129.925 61.5416C130.832 61.4947 131.443 61.1679 131.587 60.6569Z" fill="#654628"/>
<path d="M128.115 66.8765C128.576 65.9003 127.746 64.5047 126.435 63.5062C125.764 63.0164 123.817 61.8774 122.215 60.4729C120.588 59.1118 119.332 57.5511 119.146 57.6437C118.895 57.7575 119.29 59.8147 120.421 61.9232C120.973 62.9752 121.686 64.025 122.385 64.8672C123.079 65.7162 123.764 66.3432 124.16 66.6511C124.968 67.2535 125.857 67.5671 126.585 67.5883C127.318 67.6083 127.877 67.354 128.115 66.8765Z" fill="#654628"/>
<path d="M126.108 73.275C126.684 72.3646 126.246 71.0159 125.265 70.1122C124.761 69.6638 123.222 68.672 121.909 67.5329C120.58 66.424 119.486 65.2035 119.302 65.2939C119.048 65.4133 119.284 67.1179 120.06 68.9129C120.8 70.7158 122.111 72.5097 122.725 73.0474C123.954 74.1608 125.541 74.1775 126.108 73.275Z" fill="#654628"/>
<path d="M123.793 78.8696C124.498 78.0585 124.51 76.8704 123.9 76.1519C123.586 75.7916 122.502 75.0542 121.519 74.271C120.529 73.5046 119.637 72.7036 119.455 72.7939C119.2 72.9189 119.233 74.1884 119.606 75.5618C119.958 76.934 120.671 78.3619 121.056 78.7948C121.825 79.6806 123.092 79.6773 123.793 78.8696Z" fill="#654628"/>
<path d="M97.5631 54.1654C97.6133 54.6953 98.2548 55.1416 99.309 55.3234C100.355 55.5052 101.811 55.3903 103.292 54.8537C104.026 54.5782 105.333 53.9568 106.724 52.9784C108.119 52.0078 109.58 50.6836 110.751 49.2645C111.922 47.8421 112.799 46.345 113.319 45.2015C113.844 44.0557 114.027 43.2681 113.954 43.2302C113.811 43.1554 113.301 43.7757 112.465 44.6448C111.634 45.5172 110.471 46.6283 109.14 47.6123C107.807 48.5974 106.314 49.443 104.994 50.0376C103.674 50.6389 102.534 50.9926 101.927 51.2202C100.707 51.6575 99.6281 52.1328 98.826 52.6214C98.0283 53.1089 97.5118 53.6288 97.5631 54.1654Z" fill="#654628"/>
<path d="M100.768 60.5104C100.908 61.0225 101.518 61.3672 102.428 61.442C103.332 61.5123 104.526 61.2791 105.696 60.6923C106.269 60.3844 107.291 59.7507 108.351 58.8091C109.418 57.8798 110.53 56.6705 111.414 55.4154C113.228 52.9042 113.978 50.2859 113.809 50.2189C113.541 50.0828 111.93 52.1779 109.718 53.8502C108.627 54.7026 107.419 55.4667 106.355 56.0402C105.295 56.6259 104.368 56.9974 103.892 57.254C102.922 57.7348 102.102 58.2881 101.524 58.8493C100.95 59.4037 100.625 59.9895 100.768 60.5104Z" fill="#654628"/>
<path d="M104.213 66.7411C104.449 67.2185 105.011 67.4919 105.751 67.4997C106.488 67.5053 107.395 67.2286 108.227 66.6608C108.635 66.3685 109.339 65.7649 110.059 64.9371C110.784 64.116 111.53 63.0863 112.12 62.0522C113.329 59.9793 113.824 57.93 113.653 57.853C113.388 57.7202 112.033 59.2698 110.334 60.5929C108.657 61.9618 106.664 63.0484 105.969 63.5036C104.608 64.4329 103.757 65.7604 104.213 66.7411Z" fill="#654628"/>
<path d="M106.204 73.1466C106.767 74.0514 108.38 74.1016 109.664 73.054C110.307 72.5486 111.669 70.8027 112.486 69.0333C113.338 67.2729 113.669 65.5828 113.496 65.5013C113.233 65.3708 112.044 66.5734 110.643 67.6444C109.256 68.7478 107.667 69.6916 107.136 70.1077C106.101 70.9489 105.631 72.234 106.204 73.1466Z" fill="#654628"/>
<path d="M108.5 78.7556C109.199 79.5645 110.504 79.6269 111.336 78.798C111.752 78.3942 112.52 77.0097 112.947 75.671C113.394 74.3334 113.519 73.085 113.344 72.9991C113.083 72.8686 112.101 73.6461 111.038 74.3746C109.982 75.1232 108.844 75.816 108.5 76.1474C107.828 76.81 107.797 77.9424 108.5 78.7556Z" fill="#654628"/>
<path d="M148.016 68.301C147.943 68.4984 148.457 68.8052 148.988 69.565C149.518 70.3213 150.004 71.5909 149.618 73.1338C149.433 73.8969 149.077 74.7113 148.488 75.4643C147.922 76.2296 147.177 76.9291 146.272 77.4557C144.486 78.5379 141.983 78.7911 139.864 77.7368C139.608 77.5907 139.337 77.4769 139.104 77.2939C138.856 77.1333 138.619 76.9659 138.413 76.7785C137.992 76.4048 137.616 75.9842 137.303 75.5156C136.676 74.5774 136.268 73.4953 136.023 72.4098C135.536 70.2254 135.675 68.0957 135.95 66.3308C136.524 62.7932 137.605 60.7003 137.233 60.4884C137.072 60.3913 136.595 60.7874 135.965 61.6832C135.346 62.5802 134.576 63.988 134.012 65.8868C133.454 67.7666 133.042 70.1819 133.479 72.8995C133.703 74.2483 134.152 75.6763 134.991 77.0161C135.412 77.6833 135.941 78.3125 136.557 78.8714C136.866 79.1559 137.199 79.4002 137.543 79.6289C137.873 79.8788 138.256 80.0584 138.625 80.2603C140.135 81.0256 141.838 81.2778 143.411 81.1439C144.995 81.0145 146.454 80.4444 147.649 79.6501C148.848 78.8558 149.783 77.8261 150.431 76.7517C151.105 75.6897 151.479 74.5228 151.583 73.435C151.692 72.344 151.499 71.3154 151.125 70.5166C150.754 69.7189 150.24 69.1567 149.763 68.793C148.773 68.0712 148.055 68.1381 148.016 68.301Z" fill="#654628"/>
<path d="M150.669 71.1349C150.669 69.4705 149.32 68.1217 147.656 68.1217C145.991 68.1217 144.643 69.4705 144.643 71.1349C144.643 72.7994 145.991 74.1482 147.656 74.1482C149.319 74.1471 150.669 72.7983 150.669 71.1349Z" fill="#654628"/>
<path d="M149.888 54.9142C149.856 55.0692 150.272 55.2377 150.75 55.7397C151.229 56.2395 151.733 57.1242 151.623 58.3101C151.573 58.8958 151.402 59.5395 151.05 60.1643C150.719 60.7946 150.246 61.3981 149.637 61.8901C148.437 62.8942 146.613 63.3672 144.925 62.8272C144.718 62.748 144.504 62.6945 144.311 62.5862C144.109 62.4948 143.915 62.3988 143.741 62.2828C143.387 62.0541 143.06 61.7852 142.776 61.474C142.205 60.8503 141.78 60.0962 141.475 59.3197C140.866 57.7567 140.727 56.1648 140.729 54.8271C140.752 52.143 141.315 50.4696 141.014 50.3558C140.884 50.3022 140.576 50.6503 140.211 51.3844C139.855 52.1184 139.445 53.2486 139.243 54.719C139.044 56.1737 139.013 58.01 139.646 59.9723C139.965 60.9452 140.46 61.9514 141.234 62.8484C141.621 63.2946 142.084 63.7007 142.604 64.0443C142.865 64.2206 143.14 64.3634 143.421 64.4928C143.694 64.6401 143.998 64.7304 144.294 64.8375C145.499 65.2325 146.789 65.2258 147.939 64.9469C149.097 64.6713 150.113 64.0823 150.907 63.3593C151.704 62.6342 152.28 61.7662 152.637 60.8961C153.015 60.0337 153.159 59.1267 153.112 58.309C153.069 57.4879 152.809 56.7494 152.442 56.2005C152.077 55.6527 151.631 55.2946 151.237 55.0793C150.422 54.6587 149.898 54.7892 149.888 54.9142Z" fill="#654628"/>
<path d="M152.174 56.7103C151.985 55.4787 150.833 54.633 149.601 54.8216C148.369 55.0112 147.523 56.1625 147.713 57.3953C147.903 58.6269 149.054 59.4725 150.287 59.284C151.518 59.0944 152.364 57.9419 152.174 56.7103Z" fill="#654628"/>
<path d="M85.1439 68.3017C85.2175 68.4992 84.7032 68.806 84.1722 69.5657C83.6423 70.3221 83.1559 71.5917 83.5419 73.1345C83.7271 73.8976 84.0829 74.712 84.6731 75.4651C85.2387 76.2304 85.9839 76.9299 86.8887 77.4564C88.6748 78.5386 91.1782 78.7918 93.2967 77.7376C93.5533 77.5914 93.8244 77.4776 94.0576 77.2947C94.3053 77.134 94.5418 76.9667 94.7482 76.7792C95.1688 76.4055 95.5447 75.9849 95.8582 75.5164C96.4852 74.5782 96.8935 73.496 97.1378 72.4105C97.6253 70.2262 97.4859 68.0965 97.2114 66.3316C96.6369 62.794 95.5559 60.7011 95.9285 60.4891C96.0891 60.392 96.5666 60.7881 97.1958 61.6839C97.815 62.5809 98.5847 63.9888 99.1492 65.8875C99.707 67.7673 100.119 70.1826 99.6825 72.9003C99.4583 74.249 99.0087 75.677 98.1697 77.0169C97.7503 77.684 97.2204 78.3132 96.6046 78.8721C96.2955 79.1566 95.9631 79.4009 95.6184 79.6296C95.2881 79.8795 94.9055 80.0591 94.5362 80.2611C93.0257 81.0264 91.3232 81.2785 89.7502 81.1446C88.1661 81.0152 86.7068 80.4451 85.512 79.6508C84.3127 78.8565 83.3779 77.8268 82.7297 76.7525C82.0559 75.6904 81.6822 74.5235 81.5773 73.4358C81.468 72.3447 81.661 71.3161 82.0347 70.5173C82.4051 69.7197 82.9205 69.1574 83.3968 68.7937C84.3875 68.0719 85.1048 68.1388 85.1439 68.3017Z" fill="#654628"/>
<path d="M85.5045 68.1217C87.1686 68.1217 88.5177 69.4708 88.5177 71.1349C88.5177 72.7991 87.1686 74.1482 85.5045 74.1482C83.8403 74.1482 82.4912 72.7991 82.4912 71.1349C82.4912 69.4708 83.8403 68.1217 85.5045 68.1217Z" fill="#654628"/>
<path d="M83.272 54.9138C83.3032 55.0689 82.8882 55.2374 82.4085 55.7394C81.9299 56.2392 81.4257 57.1238 81.5361 58.3097C81.5863 58.8954 81.757 59.5391 82.1084 60.1639C82.4398 60.7942 82.9128 61.3978 83.5219 61.8897C84.7223 62.8938 86.5463 63.3668 88.2342 62.8268C88.4406 62.7476 88.6548 62.6941 88.8478 62.5859C89.0498 62.4944 89.2439 62.3984 89.4179 62.2824C89.7716 62.0537 90.0973 61.7849 90.384 61.4736C90.9552 60.85 91.3803 60.0958 91.6848 59.3194C92.294 57.7564 92.4334 56.1644 92.4301 54.8268C92.4066 52.1426 91.8444 50.4692 92.1445 50.3554C92.275 50.3019 92.5829 50.6499 92.9466 51.384C93.3025 52.1181 93.713 53.2482 93.9149 54.7186C94.1135 56.1733 94.1448 58.0096 93.5122 59.972C93.1931 60.9448 92.6978 61.9511 91.9236 62.848C91.5365 63.2943 91.0735 63.7004 90.5536 64.044C90.2925 64.2202 90.0181 64.363 89.737 64.4924C89.4637 64.6397 89.1602 64.7301 88.8634 64.8372C87.6586 65.2321 86.3689 65.2254 85.2187 64.9465C84.0607 64.6709 83.0444 64.0819 82.2512 63.359C81.4536 62.6338 80.8779 61.7659 80.5209 60.8957C80.1427 60.0333 79.9988 59.1263 80.0457 58.3086C80.0892 57.4875 80.3491 56.749 80.7162 56.2001C81.081 55.6524 81.5272 55.2942 81.921 55.0789C82.7376 54.6583 83.262 54.7889 83.272 54.9138Z" fill="#654628"/>
<path d="M80.9856 56.7103C81.1752 55.4786 82.3265 54.633 83.5592 54.8215C84.792 55.0101 85.6365 56.1625 85.448 57.3952C85.2595 58.628 84.107 59.4725 82.8743 59.284C81.6415 59.0954 80.7959 57.9419 80.9856 56.7103Z" fill="#654628"/>
<path d="M96.3315 78.3956C96.2355 79.0293 94.7975 83.0377 94.049 84.2805C93.2033 85.685 92.0654 86.9133 90.7758 87.9207C89.6256 88.8199 88.3281 89.1791 86.9414 89.2952C87.5148 88.9962 87.8395 88.3982 87.9008 87.8549C87.9622 87.3116 87.8105 86.804 87.6844 86.2986C87.4669 85.4285 87.2605 84.4043 87.5015 83.4527C87.9979 81.4971 89.9636 80.02 91.9527 79.1018C92.9211 78.6544 93.9263 78.3075 94.9303 77.9706C95.2494 77.8635 95.6476 77.7151 95.9912 77.7542C96.3192 77.7932 96.3817 78.0632 96.3315 78.3956Z" fill="#654628"/>
<path d="M66.6419 58.2465C66.4221 58.6113 65.446 61.2664 65.292 62.2191C65.1191 63.2946 65.1659 64.4035 65.3801 65.4645C65.572 66.4105 66.0629 67.1435 66.7021 67.7905C66.5437 67.3956 66.6352 66.9527 66.8338 66.6492C67.0324 66.3458 67.3213 66.1506 67.5969 65.9464C68.0721 65.595 68.6065 65.1577 68.8876 64.5709C69.4666 63.3615 69.1141 61.7751 68.515 60.4643C68.2227 59.8262 67.8713 59.2226 67.5154 58.6258C67.4027 58.4361 67.2677 58.1918 67.0803 58.0657C66.9018 57.9441 66.7579 58.0557 66.6419 58.2465Z" fill="#654628"/>
<path d="M106.418 81.5494C106.067 82.1306 104.51 86.3666 104.266 87.8838C103.99 89.5985 104.064 91.3679 104.407 93.0592C104.712 94.5686 105.497 95.7366 106.515 96.7686C106.263 96.1382 106.408 95.4321 106.725 94.9479C107.042 94.4637 107.502 94.1525 107.942 93.8267C108.699 93.2655 109.552 92.5694 110 91.6323C110.923 89.7045 110.361 87.1732 109.406 85.0826C108.94 84.0651 108.379 83.1023 107.811 82.1507C107.631 81.8473 107.415 81.4579 107.118 81.2582C106.833 81.0664 106.602 81.2448 106.418 81.5494Z" fill="#654628"/>
<path d="M18.4856 32.0964C18.2659 32.4601 17.2897 35.1164 17.1358 36.0691C16.9628 37.1446 17.0097 38.2535 17.2239 39.3144C17.4158 40.2605 17.9066 40.9934 18.5459 41.6405C18.3875 41.2456 18.4789 40.8027 18.6775 40.4992C18.8761 40.1958 19.165 40.0005 19.4406 39.7964C19.9158 39.445 20.4502 39.0076 20.7314 38.4208C21.3104 37.2115 20.9578 35.6251 20.3587 34.3143C20.0664 33.6761 19.715 33.0726 19.3592 32.4758C19.2465 32.2861 19.1115 32.0418 18.9241 31.9157C18.7456 31.7941 18.6005 31.9057 18.4856 32.0964Z" fill="#654628"/>
<path d="M58.4808 51.9847C58.2398 52.335 56.2205 54.3185 55.4162 54.8495C54.507 55.4497 53.4773 55.8636 52.4219 56.1046C51.4803 56.3188 50.6101 56.1726 49.7578 55.8569C50.1829 55.838 50.5499 55.5725 50.744 55.2668C50.9392 54.9611 50.9984 54.6164 51.0709 54.2817C51.1958 53.7038 51.3743 53.0378 51.7938 52.5391C52.6573 51.5139 54.2492 51.1825 55.6895 51.1892C56.3912 51.1926 57.0862 51.2651 57.7768 51.3432C57.9966 51.3677 58.2744 51.3911 58.4663 51.5094C58.6492 51.6221 58.6068 51.8006 58.4808 51.9847Z" fill="#654628"/>
<path d="M48.9788 37.118C48.3261 37.2151 43.9462 37.0221 42.4937 36.6718C40.8537 36.2758 39.2953 35.5462 37.9085 34.6057C36.6702 33.7657 35.9172 32.6255 35.375 31.3258C35.8447 31.7888 36.533 31.9227 37.0852 31.82C37.6374 31.7185 38.0904 31.4206 38.5467 31.1495C39.3343 30.681 40.277 30.179 41.2855 30.1276C43.3594 30.0228 45.4177 31.4764 46.9327 33.1163C47.6701 33.9151 48.3216 34.7786 48.9631 35.6443C49.1673 35.9199 49.435 36.259 49.5031 36.6004C49.5667 36.9273 49.3201 37.0678 48.9788 37.118Z" fill="#654628"/>
<path d="M39.1569 15.9795C38.6415 15.8233 35.4743 14.1521 34.5249 13.3868C33.4517 12.5222 32.5559 11.4401 31.8609 10.2609C31.2395 9.20884 31.0822 8.10328 31.1357 6.9542C31.3209 7.45958 31.7828 7.79873 32.2257 7.91698C32.6686 8.03412 33.107 7.97276 33.5388 7.93149C34.2829 7.86009 35.1553 7.81881 35.9172 8.13341C37.4847 8.78047 38.4976 10.571 39.0432 12.3114C39.3087 13.1581 39.4883 14.0238 39.6601 14.8862C39.7148 15.1607 39.794 15.5042 39.7248 15.7809C39.6579 16.0431 39.4269 16.0609 39.1569 15.9795Z" fill="#654628"/>
<path d="M54.9803 10.7248C55.1922 10.2295 57.197 7.2642 58.0616 6.40295C59.0377 5.43125 60.2113 4.65813 61.4597 4.09475C62.5731 3.59161 63.6898 3.55479 64.8255 3.73329C64.3023 3.8627 63.9152 4.28439 63.7501 4.71278C63.5849 5.14118 63.5983 5.58296 63.5928 6.01694C63.5827 6.7644 63.5292 7.63569 63.1331 8.35973C62.3198 9.84795 60.4289 10.659 58.6406 11.0126C57.7693 11.1844 56.8902 11.2692 56.0133 11.3451C55.7344 11.3696 55.3841 11.4109 55.1175 11.3127C54.862 11.2168 54.8698 10.9848 54.9803 10.7248Z" fill="#654628"/>
<path d="M71.8194 36.7856C71.6287 36.2847 71.0162 32.7683 71.0408 31.5512C71.0686 30.1757 71.3766 28.8057 71.883 27.5328C72.3349 26.3971 73.1102 25.5916 74.0484 24.9256C73.7628 25.383 73.7762 25.9542 73.9536 26.3748C74.131 26.7953 74.4467 27.101 74.7423 27.4156C75.2522 27.9567 75.8167 28.6149 76.0331 29.4081C76.4782 31.038 75.6828 32.9357 74.6431 34.4362C74.1366 35.1669 73.5643 35.8407 72.9875 36.5067C72.8045 36.7187 72.5814 36.9932 72.3215 37.1092C72.0738 37.2196 71.9199 37.0489 71.8194 36.7856Z" fill="#654628"/>
<path d="M80.5089 24.5074C80.4096 23.9808 80.4308 20.412 80.6718 19.2183C80.944 17.8695 81.4895 16.5765 82.2124 15.4129C82.8583 14.3754 83.7642 13.7205 84.8062 13.2319C84.4436 13.6313 84.3555 14.1958 84.4559 14.6409C84.5563 15.086 84.8118 15.443 85.0472 15.8045C85.4533 16.427 85.8917 17.1756 85.9642 17.9944C86.1137 19.6779 84.9936 21.4037 83.7051 22.6967C83.077 23.3259 82.3943 23.8871 81.7093 24.4404C81.4917 24.6167 81.224 24.8465 80.9473 24.9146C80.6829 24.9793 80.5602 24.784 80.5089 24.5074Z" fill="#654628"/>
<path d="M104.618 7.435C104.808 6.93409 106.687 3.89851 107.513 3.0049C108.448 1.99528 109.588 1.17644 110.812 0.560626C111.904 0.0117455 113.019 -0.0752735 114.162 0.0507908C113.645 0.202514 113.275 0.638693 113.129 1.07155C112.983 1.50441 113.016 1.94175 113.028 2.37349C113.05 3.11649 113.034 3.98443 112.67 4.71962C111.92 6.2335 110.065 7.12375 108.291 7.55549C107.427 7.76522 106.552 7.88794 105.678 8.00285C105.4 8.03967 105.051 8.09655 104.78 8.01065C104.521 7.92809 104.519 7.69829 104.618 7.435Z" fill="#654628"/>
<path d="M15.8573 22.3796C15.4936 23.1393 12.1591 27.6397 10.75 28.9271C9.15806 30.3808 7.27266 31.5098 5.28465 32.3063C3.51082 33.017 1.76378 33.0002 0 32.6443C0.825552 32.477 1.46034 31.8444 1.74706 31.1862C2.03377 30.528 2.04269 29.8374 2.08062 29.1592C2.14756 27.9911 2.28924 26.6334 2.95638 25.529C4.32858 23.2576 7.33737 22.1174 10.1565 21.6857C11.5298 21.4748 12.9099 21.4023 14.2843 21.3432C14.7216 21.3242 15.2727 21.2818 15.6833 21.4547C16.0748 21.6199 16.0481 21.9813 15.8573 22.3796Z" fill="#654628"/>
<path d="M136.639 78.3956C136.735 79.0293 138.173 83.0377 138.922 84.2805C139.768 85.685 140.906 86.9133 142.195 87.9207C143.345 88.8199 144.643 89.1791 146.029 89.2952C145.456 88.9962 145.131 88.3982 145.07 87.8549C145.009 87.3116 145.16 86.804 145.287 86.2986C145.504 85.4285 145.71 84.4043 145.469 83.4527C144.973 81.4971 143.007 80.02 141.018 79.1018C140.05 78.6544 139.045 78.3075 138.041 77.9706C137.722 77.8635 137.323 77.7151 136.98 77.7542C136.652 77.7932 136.589 78.0632 136.639 78.3956Z" fill="#654628"/>
<path d="M166.328 60.8368C166.548 61.2005 167.524 63.8568 167.678 64.8095C167.851 65.885 167.804 66.9939 167.59 68.0548C167.398 69.0009 166.907 69.7338 166.268 70.3809C166.426 69.9859 166.335 69.543 166.136 69.2396C165.937 68.9361 165.649 68.7409 165.373 68.5367C164.898 68.1853 164.363 67.748 164.082 67.1612C163.503 65.9519 163.856 64.3655 164.455 63.0546C164.747 62.4165 165.099 61.813 165.454 61.2161C165.568 61.0265 165.702 60.7821 165.889 60.6561C166.068 60.5334 166.213 60.6449 166.328 60.8368Z" fill="#654628"/>
<path d="M125.869 81.5495C126.219 82.1308 127.776 86.3667 128.021 87.884C128.296 89.5987 128.223 91.368 127.88 93.0593C127.574 94.5687 126.79 95.7367 125.772 96.7687C126.024 96.1384 125.879 95.4322 125.562 94.948C125.245 94.4638 124.784 94.1526 124.345 93.8268C123.587 93.2657 122.735 92.5695 122.286 91.6324C121.364 89.7047 121.926 87.1733 122.881 85.0827C123.346 84.0653 123.907 83.1025 124.475 82.1508C124.656 81.8474 124.871 81.4581 125.169 81.2584C125.454 81.0665 125.685 81.245 125.869 81.5495Z" fill="#654628"/>
<path d="M215.441 32.4871C215.661 32.8519 216.637 35.5071 216.79 36.4598C216.963 37.5352 216.917 38.6441 216.702 39.7051C216.51 40.6511 216.019 41.3841 215.38 42.0311C215.538 41.6362 215.447 41.1933 215.248 40.8899C215.05 40.5864 214.761 40.3912 214.485 40.187C214.01 39.8345 213.476 39.3983 213.195 38.8104C212.616 37.601 212.968 36.0146 213.567 34.7038C213.859 34.0657 214.211 33.4622 214.567 32.8653C214.68 32.6756 214.814 32.4313 215.002 32.3053C215.181 32.1848 215.326 32.2963 215.441 32.4871Z" fill="#654628"/>
<path d="M173.521 53.7698C173.763 54.1201 175.781 56.1037 176.586 56.6347C177.495 57.2349 178.524 57.6488 179.58 57.8898C180.521 58.1051 181.392 57.9578 182.244 57.6421C181.819 57.6242 181.452 57.3576 181.258 57.0519C181.062 56.7462 181.004 56.4026 180.931 56.0668C180.806 55.489 180.627 54.8229 180.208 54.3242C179.344 53.299 177.753 52.9677 176.312 52.9744C175.611 52.9777 174.916 53.0502 174.225 53.1283C174.005 53.1529 173.727 53.1763 173.535 53.2945C173.353 53.4083 173.395 53.5857 173.521 53.7698Z" fill="#654628"/>
<path d="M185.021 39.1528C185.673 39.2499 190.053 39.0569 191.505 38.7066C193.145 38.3106 194.703 37.581 196.091 36.6405C197.329 35.8004 198.082 34.6603 198.624 33.3595C198.154 33.8225 197.466 33.9563 196.914 33.8548C196.362 33.7533 195.91 33.4554 195.453 33.1843C194.665 32.7158 193.722 32.2126 192.714 32.1624C190.64 32.0576 188.582 33.5112 187.067 35.1511C186.329 35.9499 185.678 36.8134 185.036 37.6791C184.832 37.9547 184.564 38.2938 184.496 38.6352C184.433 38.9621 184.679 39.1026 185.021 39.1528Z" fill="#654628"/>
<path d="M193.813 15.9796C194.329 15.8234 197.495 14.1522 198.445 13.3869C199.519 12.5223 200.415 11.4402 201.11 10.261C201.731 9.20896 201.889 8.10341 201.836 6.95433C201.65 7.4597 201.189 7.79885 200.746 7.91711C200.302 8.03425 199.865 7.97289 199.433 7.93161C198.689 7.86021 197.816 7.81893 197.054 8.13353C195.487 8.78059 194.474 10.5711 193.928 12.3115C193.663 13.1582 193.483 14.024 193.311 14.8863C193.257 15.1608 193.178 15.5044 193.247 15.781C193.313 16.0432 193.543 16.061 193.813 15.9796Z" fill="#654628"/>
<path d="M177.012 12.1719C176.8 11.6765 174.795 8.71014 173.93 7.85C172.954 6.87719 171.78 6.10519 170.532 5.54181C169.418 5.03867 168.302 5.00184 167.166 5.18034C167.689 5.30975 168.076 5.73144 168.241 6.15984C168.407 6.58823 168.393 7.03002 168.399 7.46399C168.409 8.21145 168.462 9.08275 168.858 9.80678C169.672 11.295 171.563 12.106 173.351 12.4597C174.222 12.6315 175.101 12.7163 175.978 12.7922C176.257 12.8167 176.607 12.858 176.874 12.7587C177.131 12.6627 177.123 12.4318 177.012 12.1719Z" fill="#654628"/>
<path d="M160.108 36.7856C160.299 36.2847 160.912 32.7683 160.886 31.5512C160.858 30.1757 160.55 28.8057 160.045 27.5328C159.593 26.3971 158.818 25.5916 157.879 24.9256C158.165 25.383 158.152 25.9542 157.974 26.3748C157.797 26.7953 157.481 27.101 157.186 27.4156C156.676 27.9567 156.111 28.6149 155.895 29.4081C155.45 31.038 156.245 32.9357 157.285 34.4362C157.791 35.1669 158.364 35.8407 158.94 36.5067C159.123 36.7187 159.347 36.9932 159.606 37.1092C159.854 37.2196 160.008 37.0489 160.108 36.7856Z" fill="#654628"/>
<path d="M151.419 24.5074C151.518 23.9808 151.497 20.412 151.256 19.2183C150.984 17.8695 150.438 16.5765 149.716 15.4129C149.07 14.3754 148.164 13.7205 147.122 13.2319C147.484 13.6313 147.572 14.1958 147.472 14.6409C147.372 15.086 147.116 15.443 146.88 15.8045C146.474 16.427 146.035 17.1756 145.963 17.9944C145.813 19.6779 146.933 21.4037 148.222 22.6967C148.85 23.3259 149.533 23.8871 150.218 24.4404C150.435 24.6167 150.703 24.8465 150.98 24.9146C151.246 24.9793 151.368 24.784 151.419 24.5074Z" fill="#654628"/>
<path d="M128.353 7.435C128.162 6.93409 126.284 3.89851 125.457 3.0049C124.522 1.99528 123.382 1.17644 122.158 0.560626C121.066 0.0117455 119.951 -0.0752735 118.808 0.0507908C119.325 0.202514 119.695 0.638693 119.841 1.07155C119.987 1.50441 119.954 1.94175 119.942 2.37349C119.92 3.11649 119.936 3.98443 120.3 4.71962C121.05 6.2335 122.905 7.12375 124.679 7.55549C125.543 7.76522 126.418 7.88794 127.292 8.00285C127.57 8.03967 127.919 8.09655 128.19 8.01065C128.45 7.92809 128.452 7.69829 128.353 7.435Z" fill="#654628"/>
<path d="M216.074 24.3364C216.438 25.0961 219.773 29.5965 221.182 30.8839C222.774 32.3376 224.659 33.4665 226.647 34.2631C228.421 34.9737 230.168 34.957 231.932 34.6011C231.106 34.4338 230.471 33.8012 230.185 33.143C229.898 32.4848 229.889 31.7942 229.851 31.1159C229.784 29.9479 229.642 28.5902 228.975 27.4857C227.603 25.2144 224.594 24.0742 221.775 23.6425C220.402 23.4316 219.022 23.3591 217.647 23.3C217.21 23.281 216.659 23.2386 216.249 23.4116C215.857 23.5767 215.884 23.9381 216.074 24.3364Z" fill="#654628"/>
</svg>
